<svg version="1.1" id="Layer_1" xmlns="http://www.w3.org/2000/svg" xmlns:xlink="http://www.w3.org/1999/xlink" x="0px" y="0px"
	 width="100%" viewBox="0 0 2000 2000" enable-background="new 0 0 2000 2000" xml:space="preserve">
<path fill="#000000" opacity="1.000000" stroke="none" 
	d="
M907.000000,1.000000 
	C969.354248,1.000000 1031.708496,1.000000 1094.776855,1.342527 
	C1115.274536,4.111816 1135.159302,5.917605 1154.816284,9.120505 
	C1180.119751,13.243428 1205.433105,17.655514 1230.396851,23.434731 
	C1271.448120,32.938263 1311.965210,44.578938 1351.210205,60.066528 
	C1377.856689,70.582291 1404.362183,81.544044 1430.431030,93.404892 
	C1449.654419,102.151161 1468.314453,112.234276 1486.779175,122.522499 
	C1506.056030,133.263260 1525.111572,144.472855 1543.707153,156.349289 
	C1578.314941,178.452118 1611.680786,202.342072 1642.745239,229.275177 
	C1660.741699,244.878189 1678.849731,260.399078 1696.092773,276.812988 
	C1721.703613,301.192139 1746.185547,326.710205 1768.615723,354.112335 
	C1778.020752,365.602234 1788.030151,376.655212 1796.710449,388.668640 
	C1814.642212,413.486145 1832.575317,438.357574 1849.166626,464.072235 
	C1863.443848,486.200439 1876.512817,509.180176 1888.946411,532.409485 
	C1908.732910,569.376526 1926.612915,607.320984 1940.358643,646.994385 
	C1951.125977,678.071106 1961.874023,709.227234 1970.665894,740.893616 
	C1978.260742,768.248535 1983.759888,796.247498 1988.931641,824.193787 
	C1993.238770,847.468811 1995.714600,871.082214 1999.029053,894.541931 
	C1999.617188,898.704346 2000.339600,902.847778 2001.000000,907.000000 
	C2001.000000,969.354248 2001.000000,1031.708496 2000.657471,1094.776855 
	C1997.888184,1115.273926 1996.082275,1135.157959 1992.879517,1154.814331 
	C1988.756714,1180.117920 1984.333618,1205.428467 1978.568604,1230.396118 
	C1969.087891,1271.454712 1957.383789,1311.953003 1941.929443,1351.207031 
	C1931.435547,1377.861694 1920.456299,1404.360962 1908.595581,1430.429932 
	C1899.849365,1449.653442 1889.766113,1468.313477 1879.477905,1486.778320 
	C1868.737183,1506.055298 1857.520752,1525.106079 1845.652832,1543.707397 
	C1823.565552,1578.326904 1799.593872,1611.630005 1772.730469,1642.749023 
	C1757.927002,1659.897583 1743.290039,1677.237549 1727.656982,1693.611938 
	C1702.436157,1720.028320 1676.222900,1745.472778 1647.883057,1768.608765 
	C1635.106201,1779.039429 1622.712036,1790.006226 1609.376465,1799.670044 
	C1585.917725,1816.669556 1562.315674,1833.552124 1537.935547,1849.175659 
	C1515.759766,1863.386230 1492.819946,1876.511841 1469.591064,1888.946777 
	C1432.624756,1908.735352 1394.406128,1925.863525 1355.087158,1940.584961 
	C1323.918213,1952.254883 1292.418579,1962.849854 1260.163818,1970.933960 
	C1234.507568,1977.364136 1208.657593,1983.215210 1182.648804,1987.989746 
	C1157.749023,1992.560669 1132.532104,1995.403442 1107.457764,1999.027100 
	C1103.297119,1999.628418 1099.152222,2000.339600 1095.000000,2001.000000 
	C1032.645752,2001.000000 970.291565,2001.000000 907.223145,2000.657471 
	C889.005554,1998.219727 871.432678,1996.578125 854.016602,1993.912109 
	C833.220520,1990.728760 812.495239,1986.989380 791.852600,1982.916870 
	C756.477356,1975.937866 721.760315,1966.315308 687.585449,1954.894531 
	C667.613220,1948.220215 647.839111,1940.863037 628.300598,1933.005615 
	C607.826904,1924.772217 587.512817,1916.058228 567.554871,1906.650879 
	C549.785889,1898.275269 532.360168,1889.090698 515.218628,1879.485840 
	C495.966370,1868.698120 476.902588,1857.509644 458.291565,1845.656006 
	C423.652679,1823.594116 390.398346,1799.554565 359.255585,1772.725830 
	C341.966064,1757.831543 324.530609,1743.051025 308.034302,1727.304199 
	C281.736115,1702.200684 256.421356,1676.093506 233.391205,1647.883179 
	C222.960480,1635.106445 211.990128,1622.714478 202.330856,1609.375854 
	C185.436142,1586.045654 168.623108,1562.591553 153.160095,1538.307861 
	C138.214020,1514.835938 124.293114,1490.635986 111.218063,1466.066040 
	C92.147133,1430.229004 75.681793,1393.156494 61.408852,1355.089355 
	C49.318607,1322.843628 38.558128,1290.191406 30.146461,1256.836548 
	C23.960222,1232.306274 18.498386,1207.543213 13.999113,1182.651611 
	C9.495664,1157.736816 6.596786,1132.532227 2.973064,1107.457886 
	C2.371749,1103.297119 1.660462,1099.152222 0.999996,1095.000000 
	C1.000000,1032.645752 1.000000,970.291565 1.342524,907.223145 
	C4.111812,886.725281 5.917569,866.840515 9.120506,847.183350 
	C13.243463,821.879883 17.667828,796.569885 23.432076,771.601990 
	C32.911251,730.542908 44.618004,690.045349 60.070984,650.790955 
	C70.564034,624.136047 81.544373,597.637146 93.405266,571.568298 
	C102.151619,552.344849 112.234665,533.684814 122.522980,515.220032 
	C133.263702,495.943207 144.473572,476.887817 156.349838,458.292267 
	C178.452576,423.684387 202.342651,390.318451 229.275940,359.254120 
	C244.879028,341.257812 260.400238,323.149872 276.813660,305.906403 
	C301.192230,280.294922 326.699554,255.799316 354.119293,233.390839 
	C366.890686,222.953583 379.289490,211.992447 392.625153,202.328583 
	C416.083893,185.329010 439.685730,168.446182 464.066071,152.822922 
	C486.241730,138.612457 509.315735,125.748466 532.406799,113.041542 
	C547.736755,104.605515 563.650513,97.178925 579.563477,89.867348 
	C597.527100,81.613510 615.484985,73.197563 633.982727,66.291428 
	C660.174866,56.512577 686.611816,47.219849 713.401794,39.259533 
	C740.480652,31.213385 767.945312,24.251423 795.554565,18.259636 
	C828.358521,11.140482 861.524719,5.760472 895.039978,2.923148 
	C899.052185,2.583486 903.014526,1.655367 907.000000,1.000000 
M166.101440,613.666443 
	C165.072342,616.088501 163.999817,618.493225 163.020798,620.935364 
	C152.301437,647.674133 140.948822,674.181519 131.044556,701.219238 
	C117.279755,738.795837 107.175911,777.494446 99.283691,816.715210 
	C95.327118,836.377686 92.081177,856.200928 89.147224,876.045166 
	C87.171227,889.410095 86.131721,902.924316 84.982483,916.398132 
	C83.494232,933.846436 81.304787,951.316345 81.224266,968.785278 
	C81.084160,999.179871 82.123749,1029.587402 83.089516,1059.976074 
	C83.482475,1072.340698 84.693268,1084.701050 86.038193,1097.008057 
	C87.737091,1112.554199 89.391457,1128.141602 92.073929,1143.535278 
	C96.390755,1168.307983 100.724609,1193.128662 106.521088,1217.580566 
	C114.757309,1252.324219 125.293938,1286.426636 137.794098,1319.941895 
	C153.673370,1362.517456 171.919907,1403.988770 194.345383,1443.497681 
	C207.594742,1466.840088 221.380508,1489.939331 236.135818,1512.350708 
	C255.442307,1541.674805 276.348785,1569.917847 299.741547,1596.183960 
	C316.153320,1614.611572 332.615997,1633.010864 349.610138,1650.896118 
	C359.421021,1661.221313 370.171997,1670.680054 380.791321,1680.203613 
	C393.091675,1691.235107 405.586243,1702.058960 418.220276,1712.707397 
	C442.562012,1733.223755 468.116272,1752.170654 494.964111,1769.245483 
	C517.196350,1783.385010 539.673218,1797.216064 562.682190,1810.034058 
	C581.549988,1820.545044 601.026489,1830.131958 620.835266,1838.743530 
	C647.244080,1850.224243 673.980652,1861.066040 701.040894,1870.904907 
	C736.155701,1883.672363 772.196289,1893.537354 808.848022,1900.922729 
	C828.829224,1904.948975 848.877930,1908.744873 869.021118,1911.828857 
	C884.649719,1914.221680 900.446594,1915.655029 916.214478,1916.963257 
	C935.983765,1918.603516 955.784607,1920.380615 975.599915,1920.812988 
	C997.697876,1921.295532 1019.836304,1920.614258 1041.940063,1919.905518 
	C1056.969727,1919.423584 1072.010986,1918.433594 1086.972900,1916.931274 
	C1105.976807,1915.023438 1125.003174,1912.963257 1143.842041,1909.882080 
	C1167.195557,1906.062256 1190.549316,1901.905029 1213.575195,1896.497803 
	C1249.624146,1888.032227 1285.010254,1877.230957 1319.764893,1864.260864 
	C1362.495605,1848.314331 1404.220703,1830.201904 1443.741577,1807.453857 
	C1469.849121,1792.426514 1495.407715,1776.385254 1520.664551,1759.956055 
	C1547.347046,1742.599487 1572.599121,1723.205078 1596.406128,1702.037842 
	C1614.847046,1685.641602 1633.226562,1669.157349 1651.118652,1652.170044 
	C1661.205811,1642.592896 1670.423950,1632.073242 1679.721313,1621.698242 
	C1690.970215,1609.145508 1702.066284,1596.445801 1712.913086,1583.544556 
	C1734.250000,1558.166260 1753.878662,1531.477539 1771.638428,1503.499756 
	C1785.052490,1482.368042 1798.276367,1461.044067 1810.182861,1439.046875 
	C1822.270020,1416.716064 1833.137207,1393.681396 1843.640625,1370.547363 
	C1859.174194,1336.334351 1871.858276,1301.024536 1882.591187,1264.987305 
	C1892.272705,1232.480713 1900.723267,1199.693359 1905.999023,1166.189453 
	C1910.426514,1138.072021 1914.431519,1109.872559 1917.815552,1081.612549 
	C1919.720215,1065.706177 1920.652100,1049.611572 1920.838013,1033.588013 
	C1921.113892,1009.812561 1920.622925,986.016479 1919.911133,962.245483 
	C1919.441284,946.549622 1918.209717,930.866455 1916.949951,915.207336 
	C1915.879028,901.895203 1914.780762,888.550110 1912.794189,875.355103 
	C1909.980713,856.665955 1906.399536,838.090576 1903.039429,819.485901 
	C1896.979126,785.928345 1888.462280,752.920349 1877.551514,720.690735 
	C1867.320190,690.467834 1855.405151,660.788513 1843.477905,631.173340 
	C1830.570312,599.124451 1814.211670,568.702332 1796.840210,538.895081 
	C1778.002319,506.571503 1757.765869,475.084991 1734.327393,445.859009 
	C1715.337036,422.179871 1695.993774,398.758636 1676.074463,375.860382 
	C1665.428467,363.622192 1653.423828,352.532715 1641.685547,341.286957 
	C1628.879883,329.018616 1615.880737,316.933350 1602.579102,305.206970 
	C1590.573853,294.623383 1578.465820,284.069946 1565.652466,274.509003 
	C1545.471680,259.450409 1525.070435,244.609619 1504.003296,230.837860 
	C1482.783447,216.966217 1460.990967,203.869919 1438.790527,191.628845 
	C1419.296753,180.880356 1399.204834,171.068314 1378.807617,162.144852 
	C1353.935303,151.263672 1328.699341,141.109482 1303.203003,131.782745 
	C1264.686157,117.692932 1225.050537,107.305634 1184.861084,99.174454 
	C1167.781372,95.718872 1150.596191,92.675163 1133.353882,90.166412 
	C1117.865845,87.912918 1102.257446,86.380791 1086.659424,85.017181 
	C1068.222290,83.405373 1049.744873,81.325287 1031.275269,81.224487 
	C1001.048157,81.059525 970.806213,82.111694 940.584839,83.092644 
	C926.888062,83.537231 913.176453,84.613579 899.560547,86.177391 
	C883.712402,87.997574 867.880127,90.217247 852.187927,93.071594 
	C829.232056,97.247169 806.134155,101.097900 783.593140,106.986710 
	C753.543457,114.837135 723.794678,123.969360 694.238403,133.544037 
	C660.808594,144.373505 628.706787,158.663940 597.148010,174.060135 
	C581.728699,181.582565 566.448486,189.507706 551.688843,198.237289 
	C529.012695,211.649124 506.607361,225.554016 484.511505,239.903198 
	C456.698456,257.965210 430.335419,278.047516 405.504059,300.050171 
	C387.409180,316.083679 369.229462,332.063232 351.887634,348.891327 
	C338.460144,361.921143 326.196808,376.159332 313.559326,389.991364 
	C305.750488,398.538361 297.804077,407.009979 290.638672,416.083496 
	C277.883331,432.235504 265.033661,448.378662 253.388153,465.325897 
	C236.610519,489.741699 219.975128,514.343689 204.955109,539.853027 
	C190.991470,563.568176 179.223419,588.575989 166.101440,613.666443 
z"/>
<path fill="#4C6971" opacity="1.000000" stroke="none" 
	d="
M0.999996,1095.468628 
	C1.660462,1099.152222 2.371749,1103.297119 2.973064,1107.457886 
	C6.596786,1132.532227 9.495664,1157.736816 13.999113,1182.651611 
	C18.498386,1207.543213 23.960222,1232.306274 30.146461,1256.836548 
	C38.558128,1290.191406 49.318607,1322.843628 61.408852,1355.089355 
	C75.681793,1393.156494 92.147133,1430.229004 111.218063,1466.066040 
	C124.293114,1490.635986 138.214020,1514.835938 153.160095,1538.307861 
	C168.623108,1562.591553 185.436142,1586.045654 202.330856,1609.375854 
	C211.990128,1622.714478 222.960480,1635.106445 233.391205,1647.883179 
	C256.421356,1676.093506 281.736115,1702.200684 308.034302,1727.304199 
	C324.530609,1743.051025 341.966064,1757.831543 359.255585,1772.725830 
	C390.398346,1799.554565 423.652679,1823.594116 458.291565,1845.656006 
	C476.902588,1857.509644 495.966370,1868.698120 515.218628,1879.485840 
	C532.360168,1889.090698 549.785889,1898.275269 567.554871,1906.650879 
	C587.512817,1916.058228 607.826904,1924.772217 628.300598,1933.005615 
	C647.839111,1940.863037 667.613220,1948.220215 687.585449,1954.894531 
	C721.760315,1966.315308 756.477356,1975.937866 791.852600,1982.916870 
	C812.495239,1986.989380 833.220520,1990.728760 854.016602,1993.912109 
	C871.432678,1996.578125 889.005554,1998.219727 906.754517,2000.657471 
	C605.072876,2001.000000 303.145813,2001.000000 1.000000,2001.000000 
	C1.000000,1699.312500 1.000000,1397.624878 0.999996,1095.468628 
z"/>
<path fill="#4C6971" opacity="1.000000" stroke="none" 
	d="
M906.531372,1.000000 
	C903.014526,1.655367 899.052185,2.583486 895.039978,2.923148 
	C861.524719,5.760472 828.358521,11.140482 795.554565,18.259636 
	C767.945312,24.251423 740.480652,31.213385 713.401794,39.259533 
	C686.611816,47.219849 660.174866,56.512577 633.982727,66.291428 
	C615.484985,73.197563 597.527100,81.613510 579.563477,89.867348 
	C563.650513,97.178925 547.736755,104.605515 532.406799,113.041542 
	C509.315735,125.748466 486.241730,138.612457 464.066071,152.822922 
	C439.685730,168.446182 416.083893,185.329010 392.625153,202.328583 
	C379.289490,211.992447 366.890686,222.953583 354.119293,233.390839 
	C326.699554,255.799316 301.192230,280.294922 276.813660,305.906403 
	C260.400238,323.149872 244.879028,341.257812 229.275940,359.254120 
	C202.342651,390.318451 178.452576,423.684387 156.349838,458.292267 
	C144.473572,476.887817 133.263702,495.943207 122.522980,515.220032 
	C112.234665,533.684814 102.151619,552.344849 93.405266,571.568298 
	C81.544373,597.637146 70.564034,624.136047 60.070984,650.790955 
	C44.618004,690.045349 32.911251,730.542908 23.432076,771.601990 
	C17.667828,796.569885 13.243463,821.879883 9.120506,847.183350 
	C5.917569,866.840515 4.111812,886.725281 1.342524,906.754456 
	C1.000000,605.072876 1.000000,303.145813 1.000000,1.000000 
	C302.687531,1.000000 604.375122,1.000000 906.531372,1.000000 
z"/>
<path fill="#4C6971" opacity="1.000000" stroke="none" 
	d="
M1095.468628,2001.000000 
	C1099.152222,2000.339600 1103.297119,1999.628418 1107.457764,1999.027100 
	C1132.532104,1995.403442 1157.749023,1992.560669 1182.648804,1987.989746 
	C1208.657593,1983.215210 1234.507568,1977.364136 1260.163818,1970.933960 
	C1292.418579,1962.849854 1323.918213,1952.254883 1355.087158,1940.584961 
	C1394.406128,1925.863525 1432.624756,1908.735352 1469.591064,1888.946777 
	C1492.819946,1876.511841 1515.759766,1863.386230 1537.935547,1849.175659 
	C1562.315674,1833.552124 1585.917725,1816.669556 1609.376465,1799.670044 
	C1622.712036,1790.006226 1635.106201,1779.039429 1647.883057,1768.608765 
	C1676.222900,1745.472778 1702.436157,1720.028320 1727.656982,1693.611938 
	C1743.290039,1677.237549 1757.927002,1659.897583 1772.730469,1642.749023 
	C1799.593872,1611.630005 1823.565552,1578.326904 1845.652832,1543.707397 
	C1857.520752,1525.106079 1868.737183,1506.055298 1879.477905,1486.778320 
	C1889.766113,1468.313477 1899.849365,1449.653442 1908.595581,1430.429932 
	C1920.456299,1404.360962 1931.435547,1377.861694 1941.929443,1351.207031 
	C1957.383789,1311.953003 1969.087891,1271.454712 1978.568604,1230.396118 
	C1984.333618,1205.428467 1988.756714,1180.117920 1992.879517,1154.814331 
	C1996.082275,1135.157959 1997.888184,1115.273926 2000.657471,1095.245605 
	C2001.000000,1396.927124 2001.000000,1698.854126 2001.000000,2001.000000 
	C1699.312500,2001.000000 1397.624878,2001.000000 1095.468628,2001.000000 
z"/>
<path fill="#4C6971" opacity="1.000000" stroke="none" 
	d="
M2001.000000,906.531372 
	C2000.339600,902.847778 1999.617188,898.704346 1999.029053,894.541931 
	C1995.714600,871.082214 1993.238770,847.468811 1988.931641,824.193787 
	C1983.759888,796.247498 1978.260742,768.248535 1970.665894,740.893616 
	C1961.874023,709.227234 1951.125977,678.071106 1940.358643,646.994385 
	C1926.612915,607.320984 1908.732910,569.376526 1888.946411,532.409485 
	C1876.512817,509.180176 1863.443848,486.200439 1849.166626,464.072235 
	C1832.575317,438.357574 1814.642212,413.486145 1796.710449,388.668640 
	C1788.030151,376.655212 1778.020752,365.602234 1768.615723,354.112335 
	C1746.185547,326.710205 1721.703613,301.192139 1696.092773,276.812988 
	C1678.849731,260.399078 1660.741699,244.878189 1642.745239,229.275177 
	C1611.680786,202.342072 1578.314941,178.452118 1543.707153,156.349289 
	C1525.111572,144.472855 1506.056030,133.263260 1486.779175,122.522499 
	C1468.314453,112.234276 1449.654419,102.151161 1430.431030,93.404892 
	C1404.362183,81.544044 1377.856689,70.582291 1351.210205,60.066528 
	C1311.965210,44.578938 1271.448120,32.938263 1230.396851,23.434731 
	C1205.433105,17.655514 1180.119751,13.243428 1154.816284,9.120505 
	C1135.159302,5.917605 1115.274536,4.111816 1095.245605,1.342527 
	C1396.927124,1.000000 1698.854126,1.000000 2001.000000,1.000000 
	C2001.000000,302.687531 2001.000000,604.375122 2001.000000,906.531372 
z"/>
<path fill="#4C6971" opacity="1.000000" stroke="none" 
	d="
M166.295090,613.340576 
	C179.223419,588.575989 190.991470,563.568176 204.955109,539.853027 
	C219.975128,514.343689 236.610519,489.741699 253.388153,465.325897 
	C265.033661,448.378662 277.883331,432.235504 290.638672,416.083496 
	C297.804077,407.009979 305.750488,398.538361 313.559326,389.991364 
	C326.196808,376.159332 338.460144,361.921143 351.887634,348.891327 
	C369.229462,332.063232 387.409180,316.083679 405.504059,300.050171 
	C430.335419,278.047516 456.698456,257.965210 484.511505,239.903198 
	C506.607361,225.554016 529.012695,211.649124 551.688843,198.237289 
	C566.448486,189.507706 581.728699,181.582565 597.148010,174.060135 
	C628.706787,158.663940 660.808594,144.373505 694.238403,133.544037 
	C723.794678,123.969360 753.543457,114.837135 783.593140,106.986710 
	C806.134155,101.097900 829.232056,97.247169 852.187927,93.071594 
	C867.880127,90.217247 883.712402,87.997574 899.560547,86.177391 
	C913.176453,84.613579 926.888062,83.537231 940.584839,83.092644 
	C970.806213,82.111694 1001.048157,81.059525 1031.275269,81.224487 
	C1049.744873,81.325287 1068.222290,83.405373 1086.659424,85.017181 
	C1102.257446,86.380791 1117.865845,87.912918 1133.353882,90.166412 
	C1150.596191,92.675163 1167.781372,95.718872 1184.861084,99.174454 
	C1225.050537,107.305634 1264.686157,117.692932 1303.203003,131.782745 
	C1328.699341,141.109482 1353.935303,151.263672 1378.807617,162.144852 
	C1399.204834,171.068314 1419.296753,180.880356 1438.790527,191.628845 
	C1460.990967,203.869919 1482.783447,216.966217 1504.003296,230.837860 
	C1525.070435,244.609619 1545.471680,259.450409 1565.652466,274.509003 
	C1578.465820,284.069946 1590.573853,294.623383 1602.579102,305.206970 
	C1615.880737,316.933350 1628.879883,329.018616 1641.685547,341.286957 
	C1653.423828,352.532715 1665.428467,363.622192 1676.074463,375.860382 
	C1695.993774,398.758636 1715.337036,422.179871 1734.327393,445.859009 
	C1757.765869,475.084991 1778.002319,506.571503 1796.840210,538.895081 
	C1814.211670,568.702332 1830.570312,599.124451 1843.477905,631.173340 
	C1855.405151,660.788513 1867.320190,690.467834 1877.551514,720.690735 
	C1888.462280,752.920349 1896.979126,785.928345 1903.039429,819.485901 
	C1906.399536,838.090576 1909.980713,856.665955 1912.794189,875.355103 
	C1914.780762,888.550110 1915.879028,901.895203 1916.949951,915.207336 
	C1918.209717,930.866455 1919.441284,946.549622 1919.911133,962.245483 
	C1920.622925,986.016479 1921.113892,1009.812561 1920.838013,1033.588013 
	C1920.652100,1049.611572 1919.720215,1065.706177 1917.815552,1081.612549 
	C1914.431519,1109.872559 1910.426514,1138.072021 1905.999023,1166.189453 
	C1900.723267,1199.693359 1892.272705,1232.480713 1882.591187,1264.987305 
	C1871.858276,1301.024536 1859.174194,1336.334351 1843.640625,1370.547363 
	C1833.137207,1393.681396 1822.270020,1416.716064 1810.182861,1439.046875 
	C1798.276367,1461.044067 1785.052490,1482.368042 1771.638428,1503.499756 
	C1753.878662,1531.477539 1734.250000,1558.166260 1712.913086,1583.544556 
	C1702.066284,1596.445801 1690.970215,1609.145508 1679.721313,1621.698242 
	C1670.423950,1632.073242 1661.205811,1642.592896 1651.118652,1652.170044 
	C1633.226562,1669.157349 1614.847046,1685.641602 1596.406128,1702.037842 
	C1572.599121,1723.205078 1547.347046,1742.599487 1520.664551,1759.956055 
	C1495.407715,1776.385254 1469.849121,1792.426514 1443.741577,1807.453857 
	C1404.220703,1830.201904 1362.495605,1848.314331 1319.764893,1864.260864 
	C1285.010254,1877.230957 1249.624146,1888.032227 1213.575195,1896.497803 
	C1190.549316,1901.905029 1167.195557,1906.062256 1143.842041,1909.882080 
	C1125.003174,1912.963257 1105.976807,1915.023438 1086.972900,1916.931274 
	C1072.010986,1918.433594 1056.969727,1919.423584 1041.940063,1919.905518 
	C1019.836304,1920.614258 997.697876,1921.295532 975.599915,1920.812988 
	C955.784607,1920.380615 935.983765,1918.603516 916.214478,1916.963257 
	C900.446594,1915.655029 884.649719,1914.221680 869.021118,1911.828857 
	C848.877930,1908.744873 828.829224,1904.948975 808.848022,1900.922729 
	C772.196289,1893.537354 736.155701,1883.672363 701.040894,1870.904907 
	C673.980652,1861.066040 647.244080,1850.224243 620.835266,1838.743530 
	C601.026489,1830.131958 581.549988,1820.545044 562.682190,1810.034058 
	C539.673218,1797.216064 517.196350,1783.385010 494.964111,1769.245483 
	C468.116272,1752.170654 442.562012,1733.223755 418.220276,1712.707397 
	C405.586243,1702.058960 393.091675,1691.235107 380.791321,1680.203613 
	C370.171997,1670.680054 359.421021,1661.221313 349.610138,1650.896118 
	C332.615997,1633.010864 316.153320,1614.611572 299.741547,1596.183960 
	C276.348785,1569.917847 255.442307,1541.674805 236.135818,1512.350708 
	C221.380508,1489.939331 207.594742,1466.840088 194.345383,1443.497681 
	C171.919907,1403.988770 153.673370,1362.517456 137.794098,1319.941895 
	C125.293938,1286.426636 114.757309,1252.324219 106.521088,1217.580566 
	C100.724609,1193.128662 96.390755,1168.307983 92.073929,1143.535278 
	C89.391457,1128.141602 87.737091,1112.554199 86.038193,1097.008057 
	C84.693268,1084.701050 83.482475,1072.340698 83.089516,1059.976074 
	C82.123749,1029.587402 81.084160,999.179871 81.224266,968.785278 
	C81.304787,951.316345 83.494232,933.846436 84.982483,916.398132 
	C86.131721,902.924316 87.171227,889.410095 89.147224,876.045166 
	C92.081177,856.200928 95.327118,836.377686 99.283691,816.715210 
	C107.175911,777.494446 117.279755,738.795837 131.044556,701.219238 
	C140.948822,674.181519 152.301437,647.674133 163.020798,620.935364 
	C163.999817,618.493225 165.072342,616.088501 166.295090,613.340576 
M1062.129517,583.270203 
	C1059.307861,577.886780 1056.705933,572.374023 1053.626099,567.142578 
	C1040.950806,545.611755 1023.217590,528.140747 1006.952087,509.504120 
	C994.820923,495.604584 984.670166,480.517029 977.710571,463.354584 
	C969.245789,442.480347 966.540344,420.942352 971.243042,398.878235 
	C975.267822,379.994598 983.339355,362.679535 993.948120,346.556824 
	C996.301331,342.980469 998.636108,339.391968 1000.979309,335.809082 
	C981.671570,342.369110 963.562683,350.484344 946.457397,360.801880 
	C925.254578,373.590973 905.578735,388.066162 890.398499,408.042603 
	C867.693909,437.920746 862.260193,470.726410 874.229370,506.049988 
	C882.620972,530.815308 897.667786,551.751587 915.346802,570.727966 
	C928.154358,584.475403 941.617249,597.609985 954.626221,611.172913 
	C967.064087,624.140381 976.868408,638.949646 984.610168,655.155823 
	C992.089661,670.813049 994.575134,687.476318 992.732544,704.445190 
	C990.969055,720.685547 985.759644,736.200745 978.992737,751.130249 
	C976.410095,756.828186 974.097961,762.648682 971.662598,768.413330 
	C972.050415,768.717590 972.438232,769.021912 972.826050,769.326233 
	C983.455505,760.492371 994.234802,751.831543 1004.679688,742.784485 
	C1020.745544,728.868958 1035.769409,713.910034 1048.026978,696.431274 
	C1064.525146,672.905640 1075.076416,647.556458 1072.058105,617.969055 
	C1070.839111,606.018616 1067.767456,594.701599 1062.129517,583.270203 
M1010.001160,346.482849 
	C992.757690,370.739624 980.790588,396.603363 982.827942,427.506317 
	C983.784058,442.008453 987.951233,455.363251 994.179993,468.107239 
	C1001.987183,484.080627 1013.156799,497.845947 1025.311523,510.682037 
	C1039.308594,525.463806 1052.405151,540.908936 1063.453613,558.028748 
	C1075.499878,576.694702 1084.023315,596.799561 1085.841064,619.085876 
	C1087.467651,639.030334 1083.688110,658.316223 1074.791748,676.272949 
	C1069.445190,687.064819 1063.024902,697.324646 1057.054932,707.880493 
	C1057.492920,707.813904 1058.237793,707.911682 1058.710205,707.598450 
	C1082.198608,692.032654 1104.607544,675.237793 1121.937134,652.572571 
	C1135.203247,635.221680 1144.504028,616.036133 1146.790771,594.230225 
	C1148.914062,573.982483 1145.237915,554.388794 1136.434326,535.900269 
	C1124.640137,511.131409 1106.995361,490.994598 1086.554688,473.092194 
	C1081.585327,468.739899 1076.395142,464.634003 1071.517700,460.183502 
	C1059.281860,449.018768 1046.700684,438.172577 1035.200317,426.286926 
	C1029.473389,420.368073 1025.067261,412.817291 1021.378296,405.354858 
	C1013.938171,390.304291 1011.119446,374.097412 1011.997253,357.292053 
	C1012.221985,352.989655 1012.412415,348.685425 1012.676880,343.165527 
	C1011.426270,344.763824 1010.963440,345.355286 1010.001160,346.482849 
M975.148865,667.363159 
	C971.386047,659.690247 968.336365,651.555664 963.724121,644.432800 
	C950.892212,624.615662 934.576233,607.834229 917.504272,591.540283 
	C905.615723,580.193542 895.578125,566.858032 885.143494,554.060425 
	C880.569336,548.450439 877.066711,541.966736 872.874817,535.570496 
	C871.958496,536.749512 871.405884,537.204895 871.180725,537.786926 
	C860.530334,565.317993 856.800964,593.637939 862.055481,622.837219 
	C866.213623,645.943970 878.267761,664.245300 896.500366,678.881714 
	C909.237854,689.107056 921.869141,699.524292 933.869873,710.591003 
	C945.405945,721.229187 952.536133,734.780518 956.001709,750.152161 
	C956.945496,754.338562 957.778442,758.549927 958.662231,762.749878 
	C963.911499,752.698792 968.352539,742.620056 972.223633,732.326965 
	C980.130554,711.303162 982.929871,689.920105 975.148865,667.363159 
M1101.427612,1279.000000 
	C1104.175171,1279.000000 1106.922852,1279.000000 1109.596680,1279.000000 
	C1109.596680,1228.216187 1109.596680,1178.319214 1109.596680,1128.370117 
	C1100.287598,1128.370117 1091.385254,1128.370117 1082.498535,1128.370117 
	C1082.498535,1165.916626 1082.498535,1203.092285 1082.498535,1240.607178 
	C1079.932983,1235.772827 1077.682007,1231.033691 1074.993774,1226.557007 
	C1066.175293,1211.871948 1057.265625,1197.240356 1048.264526,1182.666504 
	C1037.448608,1165.154541 1026.524170,1147.709351 1015.558777,1130.290649 
	C1014.929443,1129.291138 1013.517212,1128.173096 1012.451416,1128.154785 
	C1002.838989,1127.989746 993.222595,1128.058350 983.443787,1128.058350 
	C983.443787,1178.628906 983.443787,1228.643311 983.443787,1278.589233 
	C992.795349,1278.589233 1001.698730,1278.589233 1010.500000,1278.589233 
	C1010.500000,1241.336670 1010.500000,1204.495361 1010.500000,1166.712769 
	C1011.601807,1168.608032 1012.345642,1169.788696 1012.994263,1171.019653 
	C1016.379517,1177.443848 1019.370544,1184.109131 1023.173462,1190.274292 
	C1040.811768,1218.869507 1058.679199,1247.323486 1076.442871,1275.841553 
	C1077.857178,1278.112061 1079.577271,1279.196899 1082.449829,1279.075439 
	C1088.438232,1278.822510 1094.444702,1278.999634 1101.427612,1279.000000 
M671.000000,1195.500000 
	C671.000000,1223.233887 671.000000,1250.967651 671.000000,1278.999878 
	C673.909302,1278.999878 675.899109,1279.027100 677.888000,1278.995850 
	C698.665039,1278.669312 719.452759,1278.637695 740.215332,1277.900269 
	C755.775391,1277.347656 769.203979,1272.036865 777.718445,1257.841797 
	C785.710632,1244.517090 785.153931,1222.836670 773.339844,1210.826660 
	C767.537231,1204.927979 760.553650,1201.389648 752.212341,1200.122925 
	C753.688721,1199.124268 755.258240,1198.750244 756.564819,1197.947876 
	C761.019043,1195.212891 766.335144,1193.150513 769.609680,1189.354248 
	C782.685669,1174.194824 778.414368,1148.359497 761.820801,1136.869751 
	C752.255371,1130.246460 741.397156,1128.466919 730.374878,1128.144653 
	C712.228271,1127.614380 694.054932,1127.993652 675.892822,1128.015625 
	C674.442993,1128.017334 672.993408,1128.219360 671.000000,1128.369141 
	C671.000000,1150.602783 671.000000,1172.551392 671.000000,1195.500000 
M1263.014282,1251.480103 
	C1264.323242,1249.384277 1265.789185,1247.369263 1266.916748,1245.180054 
	C1277.818481,1224.012939 1278.188843,1201.737549 1273.484619,1179.049072 
	C1270.697754,1165.608154 1264.297363,1153.875122 1254.058105,1144.773926 
	C1240.482056,1132.706787 1223.721558,1128.570068 1206.058594,1128.090820 
	C1190.243408,1127.661621 1174.407593,1127.991943 1158.580811,1128.013306 
	C1156.825317,1128.015625 1155.070068,1128.189819 1153.385620,1128.280640 
	C1153.385620,1178.767212 1153.385620,1228.654663 1153.385620,1279.000000 
	C1169.063477,1279.000000 1184.370483,1279.344849 1199.651978,1278.868042 
	C1208.505615,1278.591675 1217.429565,1277.563354 1226.124390,1275.863770 
	C1241.345459,1272.888550 1253.383667,1264.533691 1263.014282,1251.480103 
M841.862610,1273.298584 
	C844.932312,1263.905273 847.906616,1254.478271 851.180725,1245.156860 
	C851.641296,1243.845459 853.558594,1242.162354 854.818542,1242.148193 
	C872.297974,1241.950562 889.780396,1242.014404 907.341309,1242.014404 
	C911.305664,1253.448853 915.118896,1264.638794 919.130676,1275.757080 
	C919.590881,1277.032715 921.135681,1278.800171 922.218323,1278.829346 
	C931.343445,1279.075562 940.478088,1278.969727 950.159119,1278.969727 
	C949.540955,1276.662354 949.199585,1274.913818 948.608276,1273.254395 
	C942.089844,1254.959839 935.517761,1236.684570 928.989319,1218.393677 
	C918.643433,1189.407349 908.284607,1160.425537 898.044556,1131.401855 
	C897.100647,1128.726562 895.718506,1127.889893 892.993103,1127.947510 
	C885.497803,1128.105835 877.996887,1128.000366 870.498230,1128.000122 
	C861.985596,1127.999878 861.903076,1127.971558 859.103577,1135.988770 
	C845.754089,1174.219238 832.441223,1212.462524 819.143921,1250.711060 
	C815.970276,1259.839844 812.906311,1269.006714 809.504822,1278.999512 
	C818.443542,1278.999512 826.559204,1278.728516 834.643738,1279.112305 
	C838.774841,1279.308472 840.860596,1277.946899 841.862610,1273.298584 
M1333.500000,1016.000000 
	C1323.093262,1016.000000 1312.686523,1016.000000 1302.423096,1016.000000 
	C1302.423096,1001.839233 1302.423096,988.607605 1302.423096,974.813843 
	C1324.072998,974.813843 1345.305786,974.813843 1366.657227,974.813843 
	C1366.657227,967.006042 1366.657227,959.773315 1366.657227,951.796143 
	C1344.972900,951.796143 1323.619507,951.796143 1302.435913,951.796143 
	C1302.435913,938.478394 1302.435913,925.914429 1302.435913,912.789429 
	C1326.098267,912.789429 1349.329712,912.789429 1372.645752,912.789429 
	C1372.645752,904.648804 1372.645752,897.082397 1372.645752,889.303284 
	C1340.068970,889.303284 1307.846680,889.303284 1275.418457,889.303284 
	C1275.418457,939.607178 1275.418457,989.606934 1275.418457,1039.632568 
	C1308.060791,1039.632568 1340.283447,1039.632568 1372.668701,1039.632568 
	C1372.668701,1031.696533 1372.668701,1024.130859 1372.668701,1016.000000 
	C1359.729004,1016.000000 1347.114502,1016.000000 1333.500000,1016.000000 
M1364.500000,1191.000000 
	C1357.088989,1191.000000 1349.677979,1191.000000 1342.425171,1191.000000 
	C1342.425171,1177.502197 1342.425171,1164.937500 1342.425171,1151.810791 
	C1366.076416,1151.810791 1389.307739,1151.810791 1412.656494,1151.810791 
	C1412.656494,1143.671021 1412.656494,1136.104980 1412.656494,1128.469238 
	C1379.970337,1128.469238 1347.629761,1128.469238 1315.407715,1128.469238 
	C1315.407715,1178.821899 1315.407715,1228.704468 1315.407715,1278.643188 
	C1348.039429,1278.643188 1380.261963,1278.643188 1412.679443,1278.643188 
	C1412.679443,1270.718506 1412.679443,1263.152954 1412.679443,1254.843262 
	C1389.017090,1254.843262 1365.662964,1254.843262 1342.412109,1254.843262 
	C1342.412109,1240.861206 1342.412109,1227.629639 1342.412109,1213.835693 
	C1364.050537,1213.835693 1385.283813,1213.835693 1406.668213,1213.835693 
	C1406.668213,1206.028809 1406.668213,1198.796387 1406.668213,1191.000000 
	C1392.729248,1191.000000 1379.114624,1191.000000 1364.500000,1191.000000 
M660.351501,1026.111938 
	C681.648315,1043.384644 705.571350,1046.276611 730.545471,1036.885742 
	C751.912048,1028.851196 764.277832,1012.471863 768.203552,989.032837 
	C759.200867,989.032837 750.744263,988.922974 742.298523,989.176453 
	C741.280579,989.206970 739.812988,991.043701 739.411926,992.314270 
	C733.625488,1010.644958 718.999939,1017.020630 703.878235,1016.790894 
	C688.788025,1016.561646 677.330139,1009.097046 670.155457,995.463379 
	C662.243347,980.428345 662.684937,964.392639 665.212952,948.462402 
	C668.585388,927.211121 685.943420,908.797302 712.017456,912.892029 
	C724.203674,914.805786 735.741943,924.132507 739.070068,936.073608 
	C739.459656,937.471619 740.659485,939.711426 741.541321,939.739258 
	C750.259399,940.015015 758.989624,939.906006 767.777161,939.906006 
	C766.081299,924.018555 758.924561,912.553223 752.492065,906.099915 
	C734.216797,887.765137 711.599121,884.304688 687.551392,889.453674 
	C663.267822,894.653259 647.898315,910.619202 640.171814,933.890381 
	C635.130554,949.073914 635.049866,964.719910 636.939697,980.498779 
	C639.085327,998.413391 646.461060,1013.580872 660.351501,1026.111938 
M1236.920776,890.878967 
	C1235.102661,890.252869 1233.286621,889.088379 1231.465942,889.081116 
	C1202.802002,888.966431 1174.137573,888.996338 1145.473145,889.012085 
	C1143.850830,889.013000 1142.228638,889.178589 1140.442383,889.276489 
	C1140.442383,939.620911 1140.442383,989.637878 1140.442383,1039.590088 
	C1149.792847,1039.590088 1158.696655,1039.590088 1168.170898,1039.590088 
	C1168.170898,1019.613220 1168.170898,1000.038818 1168.170898,979.895630 
	C1188.986206,979.895630 1209.226440,979.895630 1229.688843,979.895630 
	C1229.688843,972.076965 1229.688843,964.842285 1229.688843,956.849976 
	C1209.028442,956.849976 1188.664917,956.849976 1168.421875,956.849976 
	C1168.421875,941.851257 1168.421875,927.615051 1168.421875,912.805603 
	C1191.411011,912.805603 1213.983765,912.805603 1236.977661,912.805603 
	C1236.977661,905.427063 1236.977661,898.622986 1236.920776,890.878967 
M1017.527710,889.000000 
	C1013.783508,889.000000 1010.039307,889.000000 1006.418335,889.000000 
	C1006.418335,939.814575 1006.418335,989.711365 1006.418335,1039.614868 
	C1015.743896,1039.614868 1024.645752,1039.614868 1034.119629,1039.614868 
	C1034.119629,1019.664917 1034.119629,1000.091492 1034.119629,979.950256 
	C1054.930786,979.950256 1075.170532,979.950256 1095.540894,979.950256 
	C1095.540894,972.009277 1095.540894,964.655151 1095.540894,956.732544 
	C1074.847412,956.732544 1054.607544,956.732544 1034.390137,956.732544 
	C1034.390137,941.913940 1034.390137,927.679565 1034.390137,912.870972 
	C1057.011841,912.870972 1079.250732,912.870972 1101.678223,912.870972 
	C1101.678223,904.720581 1101.678223,897.152954 1101.678223,889.000000 
	C1073.746582,889.000000 1046.132446,889.000000 1017.527710,889.000000 
M898.993774,1019.763367 
	C899.524963,1015.951050 897.074402,1015.969666 894.358582,1015.976746 
	C876.041077,1016.024353 857.723389,1016.000549 839.405762,1015.999817 
	C837.462097,1015.999756 835.518433,1015.999817 832.861694,1015.999817 
	C832.861694,973.359924 832.861694,931.360352 832.861694,889.390625 
	C823.236755,889.390625 814.338440,889.390625 805.313599,889.390625 
	C805.313599,939.653320 805.313599,989.524902 805.313599,1039.569580 
	C836.629822,1039.569580 867.630859,1039.569580 898.998291,1039.569580 
	C898.998291,1033.000244 898.998291,1026.857056 898.993774,1019.763367 
M600.000000,1235.500000 
	C600.000000,1249.904175 600.000000,1264.308228 600.000000,1278.572754 
	C609.833862,1278.572754 618.736633,1278.572754 627.625793,1278.572754 
	C627.625793,1228.256836 627.625793,1178.368896 627.625793,1128.338745 
	C618.349243,1128.338745 609.449463,1128.338745 600.000000,1128.338745 
	C600.000000,1163.949707 600.000000,1199.224854 600.000000,1235.500000 
M935.000000,958.500000 
	C935.000000,985.564453 935.000000,1012.628906 935.000000,1039.578125 
	C944.821472,1039.578125 953.723999,1039.578125 962.631226,1039.578125 
	C962.631226,989.267700 962.631226,939.379883 962.631226,889.333374 
	C953.360413,889.333374 944.460754,889.333374 935.000000,889.333374 
	C935.000000,912.274658 935.000000,934.887329 935.000000,958.500000 
M1262.000000,1436.500000 
	C1262.000000,1446.894775 1262.000000,1457.289551 1262.000000,1467.976562 
	C1270.192261,1467.976562 1277.598267,1468.711304 1284.764893,1467.718262 
	C1289.546997,1467.055786 1294.641846,1464.758789 1298.450317,1461.744751 
	C1307.181396,1454.835449 1307.929565,1444.668335 1306.621216,1434.605103 
	C1305.289185,1424.358398 1300.535522,1415.608154 1289.544922,1413.518066 
	C1280.754150,1411.846313 1271.600220,1412.085083 1262.000000,1411.434692 
	C1262.000000,1420.280029 1262.000000,1427.890015 1262.000000,1436.500000 
M881.860291,1457.493896 
	C888.624023,1467.739502 901.157471,1471.800049 912.213379,1467.327881 
	C922.857117,1463.022339 927.717224,1453.188354 925.370544,1440.413818 
	C918.372620,1440.413818 911.339783,1440.413818 904.389587,1440.413818 
	C904.389587,1442.741333 904.389587,1444.651001 904.389587,1447.000000 
	C906.894836,1447.000000 909.032227,1446.961670 911.167664,1447.010742 
	C913.383484,1447.061523 915.597351,1447.196655 917.874146,1447.297729 
	C916.246826,1455.328979 912.388245,1460.169922 906.718811,1460.856934 
	C899.651428,1461.713379 893.464539,1460.391968 889.048462,1453.725098 
	C885.090942,1447.750488 885.840271,1441.316162 886.139771,1434.972412 
	C886.459473,1428.199829 892.835754,1420.432617 898.815430,1419.250610 
	C905.376343,1417.953857 911.427734,1419.970581 914.858398,1425.687622 
	C917.588501,1430.236938 920.795654,1430.583862 925.070251,1429.618652 
	C924.054749,1420.994507 917.184570,1413.644165 908.670471,1412.073242 
	C897.518555,1410.015503 887.050537,1413.987183 882.679260,1421.688232 
	C876.123352,1433.237915 876.440918,1444.958008 881.860291,1457.493896 
M855.857422,1415.439453 
	C845.751282,1409.958496 834.976929,1412.556763 824.354370,1412.095337 
	C824.354370,1431.072144 824.354370,1449.305054 824.354370,1467.682617 
	C826.950867,1467.682617 829.190796,1467.682617 832.165344,1467.682617 
	C832.165344,1460.685669 832.165344,1453.972534 832.165344,1447.629517 
	C840.217773,1445.607910 845.823425,1446.941162 848.171509,1455.183716 
	C848.872314,1457.643677 850.806519,1459.729614 851.999939,1462.076294 
	C855.413696,1468.788818 855.378235,1468.806885 864.207642,1467.382324 
	C860.275330,1459.972290 856.442078,1452.748901 852.603455,1445.515381 
	C864.046021,1438.352539 865.769409,1425.245483 855.857422,1415.439453 
M759.068298,1424.806396 
	C755.698914,1432.974121 754.954712,1441.367065 757.112061,1449.943604 
	C759.815796,1460.692139 768.805725,1468.461792 778.983459,1468.992676 
	C790.390686,1469.587769 799.834717,1464.036987 803.537048,1453.692627 
	C805.920105,1447.034058 806.534546,1440.119507 805.162964,1432.844238 
	C802.922913,1420.962524 795.606628,1413.720337 787.647034,1412.300903 
	C774.949402,1410.036255 767.501404,1412.175537 759.068298,1424.806396 
M1093.999634,1417.680664 
	C1093.916138,1415.908691 1093.832642,1414.136597 1093.748779,1412.354248 
	C1090.977051,1412.354248 1088.736572,1412.354248 1086.298340,1412.354248 
	C1086.298340,1430.934937 1086.298340,1449.169189 1086.298340,1467.557617 
	C1088.958862,1467.557617 1091.303955,1467.557617 1094.218750,1467.557617 
	C1094.218750,1459.224609 1094.218750,1451.316895 1094.218750,1443.360107 
	C1103.698975,1443.360107 1112.597412,1443.360107 1122.055298,1443.360107 
	C1122.055298,1451.621704 1122.055298,1459.533691 1122.055298,1467.542969 
	C1124.981079,1467.542969 1127.329102,1467.542969 1129.614014,1467.542969 
	C1129.614014,1448.856689 1129.614014,1430.621216 1129.614014,1412.354980 
	C1126.983521,1412.354980 1124.742554,1412.354980 1121.936523,1412.354980 
	C1121.936523,1420.266235 1121.936523,1427.843384 1121.936523,1435.544189 
	C1112.342163,1435.544189 1103.325806,1435.544189 1094.000000,1435.544189 
	C1094.000000,1429.606323 1094.000000,1424.121948 1093.999634,1417.680664 
M1062.111450,1444.374878 
	C1058.741211,1435.091431 1055.226929,1425.856567 1052.076416,1416.499146 
	C1050.930054,1413.094604 1049.209229,1411.859131 1045.609985,1411.879761 
	C1042.216553,1411.898926 1040.839600,1412.941650 1039.730103,1416.254761 
	C1036.229736,1426.707275 1032.120972,1436.954590 1028.367554,1447.324585 
	C1025.948853,1454.006836 1023.740845,1460.765503 1021.376831,1467.669678 
	C1029.610352,1468.320068 1029.610474,1468.320068 1031.013184,1464.414429 
	C1035.112671,1452.999878 1035.112549,1452.999878 1047.176880,1453.000000 
	C1047.510132,1453.000000 1047.843506,1453.000000 1048.176758,1453.000000 
	C1057.045288,1453.000244 1057.045288,1453.000244 1060.022217,1461.650513 
	C1062.496826,1468.841064 1062.496826,1468.841064 1070.516357,1467.361328 
	C1067.838623,1459.888550 1065.179688,1452.468262 1062.111450,1444.374878 
M1228.866211,1416.733765 
	C1227.721191,1412.760132 1225.065552,1411.807617 1221.067627,1411.865356 
	C1216.855347,1411.926514 1216.949341,1414.971191 1216.036621,1417.419067 
	C1213.509155,1424.197754 1211.070679,1431.009521 1208.623169,1437.817749 
	C1205.078491,1447.678955 1201.556763,1457.548340 1197.892578,1467.785034 
	C1201.102661,1467.785034 1203.722290,1467.785034 1206.496948,1467.785034 
	C1208.177856,1462.892456 1209.820557,1458.110840 1211.502563,1453.214600 
	C1218.916260,1453.214600 1226.200562,1453.214600 1233.415039,1453.214600 
	C1234.669067,1456.488403 1235.906372,1459.529419 1237.002441,1462.620361 
	C1239.143799,1468.659668 1240.104248,1469.131104 1247.150024,1466.982544 
	C1241.095459,1450.481689 1235.047974,1434.000488 1228.866211,1416.733765 
M952.290710,1435.066650 
	C952.290710,1429.826416 952.290710,1424.586182 952.290710,1418.811890 
	C961.443787,1418.811890 970.029602,1418.811890 978.659058,1418.811890 
	C978.659058,1416.337524 978.659058,1414.428345 978.659058,1412.300537 
	C967.098816,1412.300537 955.864136,1412.300537 944.433228,1412.300537 
	C944.433228,1430.948608 944.433228,1449.293701 944.433228,1467.629517 
	C956.113647,1467.629517 967.357422,1467.629517 978.660095,1467.629517 
	C978.660095,1465.342285 978.660095,1463.435425 978.660095,1460.965088 
	C969.770325,1460.965088 961.192566,1460.965088 952.442383,1460.965088 
	C952.442383,1454.705444 952.442383,1449.021851 952.442383,1442.792725 
	C960.799683,1442.792725 968.719727,1442.792725 976.647339,1442.792725 
	C976.647339,1440.325684 976.647339,1438.415894 976.647339,1435.719849 
	C968.534485,1435.719849 960.748962,1435.719849 952.290710,1435.066650 
M1150.290161,1412.936279 
	C1150.290161,1431.166016 1150.290161,1449.395630 1150.290161,1467.637207 
	C1161.762207,1467.637207 1172.671997,1467.637207 1183.669678,1467.637207 
	C1183.669678,1465.355835 1183.669678,1463.447510 1183.669678,1460.804932 
	C1175.001343,1460.804932 1166.626953,1460.804932 1158.433594,1460.804932 
	C1158.433594,1454.484497 1158.433594,1448.914795 1158.433594,1442.809082 
	C1166.447021,1442.809082 1174.032959,1442.809082 1181.656982,1442.809082 
	C1181.656982,1440.334106 1181.656982,1438.424683 1181.656982,1435.959595 
	C1173.764282,1435.959595 1166.185181,1435.959595 1158.445557,1435.959595 
	C1158.445557,1430.034058 1158.445557,1424.682617 1158.445557,1418.787109 
	C1167.138794,1418.787109 1175.391357,1418.787109 1183.644287,1418.787109 
	C1183.644287,1416.320557 1183.644287,1414.410767 1183.644287,1412.281128 
	C1172.526611,1412.281128 1161.744385,1412.281128 1150.290161,1412.936279 
M737.985962,1440.498291 
	C738.401428,1437.456177 736.713074,1436.925781 734.129028,1436.968628 
	C727.547058,1437.077881 720.961975,1437.004883 714.370972,1437.004883 
	C714.370972,1430.606934 714.370972,1425.043213 714.370972,1418.934692 
	C722.974121,1418.934692 731.215820,1418.934692 739.714844,1418.934692 
	C739.714844,1416.473267 739.714844,1414.565552 739.714844,1412.395752 
	C728.471558,1412.395752 717.454651,1412.395752 706.321655,1412.395752 
	C706.321655,1431.015259 706.321655,1449.237427 706.321655,1467.722656 
	C708.882141,1467.722656 711.120789,1467.722656 714.095093,1467.722656 
	C714.095093,1459.772339 714.095093,1452.073242 714.095093,1443.996704 
	C721.127136,1443.996704 727.435608,1444.154419 733.725037,1443.878540 
	C735.174500,1443.814941 736.558777,1442.265259 737.985962,1440.498291 
z"/>
<path fill="#000000" opacity="1.000000" stroke="none" 
	d="
M1062.304321,583.611450 
	C1067.767456,594.701599 1070.839111,606.018616 1072.058105,617.969055 
	C1075.076416,647.556458 1064.525146,672.905640 1048.026978,696.431274 
	C1035.769409,713.910034 1020.745544,728.868958 1004.679688,742.784485 
	C994.234802,751.831543 983.455505,760.492371 972.826050,769.326233 
	C972.438232,769.021912 972.050415,768.717590 971.662598,768.413330 
	C974.097961,762.648682 976.410095,756.828186 978.992737,751.130249 
	C985.759644,736.200745 990.969055,720.685547 992.732544,704.445190 
	C994.575134,687.476318 992.089661,670.813049 984.610168,655.155823 
	C976.868408,638.949646 967.064087,624.140381 954.626221,611.172913 
	C941.617249,597.609985 928.154358,584.475403 915.346802,570.727966 
	C897.667786,551.751587 882.620972,530.815308 874.229370,506.049988 
	C862.260193,470.726410 867.693909,437.920746 890.398499,408.042603 
	C905.578735,388.066162 925.254578,373.590973 946.457397,360.801880 
	C963.562683,350.484344 981.671570,342.369110 1000.979309,335.809082 
	C998.636108,339.391968 996.301331,342.980469 993.948120,346.556824 
	C983.339355,362.679535 975.267822,379.994598 971.243042,398.878235 
	C966.540344,420.942352 969.245789,442.480347 977.710571,463.354584 
	C984.670166,480.517029 994.820923,495.604584 1006.952087,509.504120 
	C1023.217590,528.140747 1040.950806,545.611755 1053.626099,567.142578 
	C1056.705933,572.374023 1059.307861,577.886780 1062.304321,583.611450 
z"/>
<path fill="#000000" opacity="1.000000" stroke="none" 
	d="
M1010.250854,346.214813 
	C1010.963440,345.355286 1011.426270,344.763824 1012.676880,343.165527 
	C1012.412415,348.685425 1012.221985,352.989655 1011.997253,357.292053 
	C1011.119446,374.097412 1013.938171,390.304291 1021.378296,405.354858 
	C1025.067261,412.817291 1029.473389,420.368073 1035.200317,426.286926 
	C1046.700684,438.172577 1059.281860,449.018768 1071.517700,460.183502 
	C1076.395142,464.634003 1081.585327,468.739899 1086.554688,473.092194 
	C1106.995361,490.994598 1124.640137,511.131409 1136.434326,535.900269 
	C1145.237915,554.388794 1148.914062,573.982483 1146.790771,594.230225 
	C1144.504028,616.036133 1135.203247,635.221680 1121.937134,652.572571 
	C1104.607544,675.237793 1082.198608,692.032654 1058.710205,707.598450 
	C1058.237793,707.911682 1057.492920,707.813904 1057.054932,707.880493 
	C1063.024902,697.324646 1069.445190,687.064819 1074.791748,676.272949 
	C1083.688110,658.316223 1087.467651,639.030334 1085.841064,619.085876 
	C1084.023315,596.799561 1075.499878,576.694702 1063.453613,558.028748 
	C1052.405151,540.908936 1039.308594,525.463806 1025.311523,510.682037 
	C1013.156799,497.845947 1001.987183,484.080627 994.179993,468.107239 
	C987.951233,455.363251 983.784058,442.008453 982.827942,427.506317 
	C980.790588,396.603363 992.757690,370.739624 1010.250854,346.214813 
z"/>
<path fill="#000000" opacity="1.000000" stroke="none" 
	d="
M975.345703,667.712036 
	C982.929871,689.920105 980.130554,711.303162 972.223633,732.326965 
	C968.352539,742.620056 963.911499,752.698792 958.662231,762.749878 
	C957.778442,758.549927 956.945496,754.338562 956.001709,750.152161 
	C952.536133,734.780518 945.405945,721.229187 933.869873,710.591003 
	C921.869141,699.524292 909.237854,689.107056 896.500366,678.881714 
	C878.267761,664.245300 866.213623,645.943970 862.055481,622.837219 
	C856.800964,593.637939 860.530334,565.317993 871.180725,537.786926 
	C871.405884,537.204895 871.958496,536.749512 872.874817,535.570496 
	C877.066711,541.966736 880.569336,548.450439 885.143494,554.060425 
	C895.578125,566.858032 905.615723,580.193542 917.504272,591.540283 
	C934.576233,607.834229 950.892212,624.615662 963.724121,644.432800 
	C968.336365,651.555664 971.386047,659.690247 975.345703,667.712036 
z"/>
<path fill="#000000" opacity="1.000000" stroke="none" 
	d="
M1100.935791,1279.000000 
	C1094.444702,1278.999634 1088.438232,1278.822510 1082.449829,1279.075439 
	C1079.577271,1279.196899 1077.857178,1278.112061 1076.442871,1275.841553 
	C1058.679199,1247.323486 1040.811768,1218.869507 1023.173462,1190.274292 
	C1019.370544,1184.109131 1016.379517,1177.443848 1012.994263,1171.019653 
	C1012.345642,1169.788696 1011.601807,1168.608032 1010.500000,1166.712769 
	C1010.500000,1204.495361 1010.500000,1241.336670 1010.500000,1278.589233 
	C1001.698730,1278.589233 992.795349,1278.589233 983.443787,1278.589233 
	C983.443787,1228.643311 983.443787,1178.628906 983.443787,1128.058350 
	C993.222595,1128.058350 1002.838989,1127.989746 1012.451416,1128.154785 
	C1013.517212,1128.173096 1014.929443,1129.291138 1015.558777,1130.290649 
	C1026.524170,1147.709351 1037.448608,1165.154541 1048.264526,1182.666504 
	C1057.265625,1197.240356 1066.175293,1211.871948 1074.993774,1226.557007 
	C1077.682007,1231.033691 1079.932983,1235.772827 1082.498535,1240.607178 
	C1082.498535,1203.092285 1082.498535,1165.916626 1082.498535,1128.370117 
	C1091.385254,1128.370117 1100.287598,1128.370117 1109.596680,1128.370117 
	C1109.596680,1178.319214 1109.596680,1228.216187 1109.596680,1279.000000 
	C1106.922852,1279.000000 1104.175171,1279.000000 1100.935791,1279.000000 
z"/>
<path fill="#000000" opacity="1.000000" stroke="none" 
	d="
M671.000000,1195.000000 
	C671.000000,1172.551392 671.000000,1150.602783 671.000000,1128.369141 
	C672.993408,1128.219360 674.442993,1128.017334 675.892822,1128.015625 
	C694.054932,1127.993652 712.228271,1127.614380 730.374878,1128.144653 
	C741.397156,1128.466919 752.255371,1130.246460 761.820801,1136.869751 
	C778.414368,1148.359497 782.685669,1174.194824 769.609680,1189.354248 
	C766.335144,1193.150513 761.019043,1195.212891 756.564819,1197.947876 
	C755.258240,1198.750244 753.688721,1199.124268 752.212341,1200.122925 
	C760.553650,1201.389648 767.537231,1204.927979 773.339844,1210.826660 
	C785.153931,1222.836670 785.710632,1244.517090 777.718445,1257.841797 
	C769.203979,1272.036865 755.775391,1277.347656 740.215332,1277.900269 
	C719.452759,1278.637695 698.665039,1278.669312 677.888000,1278.995850 
	C675.899109,1279.027100 673.909302,1278.999878 671.000000,1278.999878 
	C671.000000,1250.967651 671.000000,1223.233887 671.000000,1195.000000 
M718.499695,1255.000000 
	C723.498779,1254.998535 728.500366,1255.099121 733.496338,1254.974365 
	C743.842957,1254.716187 752.699097,1247.685669 754.834412,1238.177734 
	C756.564819,1230.472656 750.560120,1219.554932 742.054077,1215.579102 
	C728.283508,1209.142578 713.735107,1213.108154 699.325012,1211.897461 
	C699.325012,1226.620483 699.325012,1240.520508 699.325012,1255.000000 
	C705.594299,1255.000000 711.547363,1255.000000 718.499695,1255.000000 
M699.000000,1160.575562 
	C699.000000,1170.854858 699.000000,1181.134155 699.000000,1191.999634 
	C708.071594,1191.999634 716.556274,1192.449341 724.961914,1191.829102 
	C729.912415,1191.463745 735.141296,1190.186890 739.532166,1187.932007 
	C747.715210,1183.729614 750.250061,1176.018433 748.884216,1167.311646 
	C747.784119,1160.299194 743.723572,1154.362671 736.535706,1153.514648 
	C724.295898,1152.070923 711.887573,1152.056274 699.000000,1151.413818 
	C699.000000,1155.011475 699.000000,1157.307251 699.000000,1160.575562 
z"/>
<path fill="#000000" opacity="1.000000" stroke="none" 
	d="
M1262.775146,1251.752930 
	C1253.383667,1264.533691 1241.345459,1272.888550 1226.124390,1275.863770 
	C1217.429565,1277.563354 1208.505615,1278.591675 1199.651978,1278.868042 
	C1184.370483,1279.344849 1169.063477,1279.000000 1153.385620,1279.000000 
	C1153.385620,1228.654663 1153.385620,1178.767212 1153.385620,1128.280640 
	C1155.070068,1128.189819 1156.825317,1128.015625 1158.580811,1128.013306 
	C1174.407593,1127.991943 1190.243408,1127.661621 1206.058594,1128.090820 
	C1223.721558,1128.570068 1240.482056,1132.706787 1254.058105,1144.773926 
	C1264.297363,1153.875122 1270.697754,1165.608154 1273.484619,1179.049072 
	C1278.188843,1201.737549 1277.818481,1224.012939 1266.916748,1245.180054 
	C1265.789185,1247.369263 1264.323242,1249.384277 1262.775146,1251.752930 
M1205.654297,1254.003174 
	C1225.509644,1254.374756 1241.828247,1242.840088 1246.445923,1223.983521 
	C1249.132324,1213.013672 1249.738159,1201.910278 1248.096924,1190.585327 
	C1245.592529,1173.306763 1235.608032,1157.922119 1216.955078,1154.027710 
	C1213.107056,1153.224121 1209.190674,1152.417847 1205.284058,1152.292480 
	C1197.035156,1152.027466 1188.771729,1152.211792 1180.463867,1152.211792 
	C1180.463867,1186.704468 1180.463867,1220.702393 1180.463867,1255.439331 
	C1188.882080,1254.943848 1196.802002,1254.477783 1205.654297,1254.003174 
z"/>
<path fill="#000000" opacity="1.000000" stroke="none" 
	d="
M841.675293,1273.658325 
	C840.860596,1277.946899 838.774841,1279.308472 834.643738,1279.112305 
	C826.559204,1278.728516 818.443542,1278.999512 809.504822,1278.999512 
	C812.906311,1269.006714 815.970276,1259.839844 819.143921,1250.711060 
	C832.441223,1212.462524 845.754089,1174.219238 859.103577,1135.988770 
	C861.903076,1127.971558 861.985596,1127.999878 870.498230,1128.000122 
	C877.996887,1128.000366 885.497803,1128.105835 892.993103,1127.947510 
	C895.718506,1127.889893 897.100647,1128.726562 898.044556,1131.401855 
	C908.284607,1160.425537 918.643433,1189.407349 928.989319,1218.393677 
	C935.517761,1236.684570 942.089844,1254.959839 948.608276,1273.254395 
	C949.199585,1274.913818 949.540955,1276.662354 950.159119,1278.969727 
	C940.478088,1278.969727 931.343445,1279.075562 922.218323,1278.829346 
	C921.135681,1278.800171 919.590881,1277.032715 919.130676,1275.757080 
	C915.118896,1264.638794 911.305664,1253.448853 907.341309,1242.014404 
	C889.780396,1242.014404 872.297974,1241.950562 854.818542,1242.148193 
	C853.558594,1242.162354 851.641296,1243.845459 851.180725,1245.156860 
	C847.906616,1254.478271 844.932312,1263.905273 841.675293,1273.658325 
M878.180420,1155.493408 
	C872.374390,1176.527832 866.568359,1197.562134 860.744751,1218.660400 
	C873.220276,1218.660400 885.936218,1218.660400 898.589844,1218.660400 
	C898.719116,1217.998779 898.910583,1217.637329 898.827148,1217.358032 
	C892.716736,1196.890747 886.594177,1176.427124 880.394470,1155.986816 
	C880.248840,1155.506592 879.217407,1155.295166 878.180420,1155.493408 
z"/>
<path fill="#000000" opacity="1.000000" stroke="none" 
	d="
M1334.000000,1016.000000 
	C1347.114502,1016.000000 1359.729004,1016.000000 1372.668701,1016.000000 
	C1372.668701,1024.130859 1372.668701,1031.696533 1372.668701,1039.632568 
	C1340.283447,1039.632568 1308.060791,1039.632568 1275.418457,1039.632568 
	C1275.418457,989.606934 1275.418457,939.607178 1275.418457,889.303284 
	C1307.846680,889.303284 1340.068970,889.303284 1372.645752,889.303284 
	C1372.645752,897.082397 1372.645752,904.648804 1372.645752,912.789429 
	C1349.329712,912.789429 1326.098267,912.789429 1302.435913,912.789429 
	C1302.435913,925.914429 1302.435913,938.478394 1302.435913,951.796143 
	C1323.619507,951.796143 1344.972900,951.796143 1366.657227,951.796143 
	C1366.657227,959.773315 1366.657227,967.006042 1366.657227,974.813843 
	C1345.305786,974.813843 1324.072998,974.813843 1302.423096,974.813843 
	C1302.423096,988.607605 1302.423096,1001.839233 1302.423096,1016.000000 
	C1312.686523,1016.000000 1323.093262,1016.000000 1334.000000,1016.000000 
z"/>
<path fill="#000000" opacity="1.000000" stroke="none" 
	d="
M1365.000000,1191.000000 
	C1379.114624,1191.000000 1392.729248,1191.000000 1406.668213,1191.000000 
	C1406.668213,1198.796387 1406.668213,1206.028809 1406.668213,1213.835693 
	C1385.283813,1213.835693 1364.050537,1213.835693 1342.412109,1213.835693 
	C1342.412109,1227.629639 1342.412109,1240.861206 1342.412109,1254.843262 
	C1365.662964,1254.843262 1389.017090,1254.843262 1412.679443,1254.843262 
	C1412.679443,1263.152954 1412.679443,1270.718506 1412.679443,1278.643188 
	C1380.261963,1278.643188 1348.039429,1278.643188 1315.407715,1278.643188 
	C1315.407715,1228.704468 1315.407715,1178.821899 1315.407715,1128.469238 
	C1347.629761,1128.469238 1379.970337,1128.469238 1412.656494,1128.469238 
	C1412.656494,1136.104980 1412.656494,1143.671021 1412.656494,1151.810791 
	C1389.307739,1151.810791 1366.076416,1151.810791 1342.425171,1151.810791 
	C1342.425171,1164.937500 1342.425171,1177.502197 1342.425171,1191.000000 
	C1349.677979,1191.000000 1357.088989,1191.000000 1365.000000,1191.000000 
z"/>
<path fill="#000000" opacity="1.000000" stroke="none" 
	d="
M660.009460,1026.002930 
	C646.461060,1013.580872 639.085327,998.413391 636.939697,980.498779 
	C635.049866,964.719910 635.130554,949.073914 640.171814,933.890381 
	C647.898315,910.619202 663.267822,894.653259 687.551392,889.453674 
	C711.599121,884.304688 734.216797,887.765137 752.492065,906.099915 
	C758.924561,912.553223 766.081299,924.018555 767.777161,939.906006 
	C758.989624,939.906006 750.259399,940.015015 741.541321,939.739258 
	C740.659485,939.711426 739.459656,937.471619 739.070068,936.073608 
	C735.741943,924.132507 724.203674,914.805786 712.017456,912.892029 
	C685.943420,908.797302 668.585388,927.211121 665.212952,948.462402 
	C662.684937,964.392639 662.243347,980.428345 670.155457,995.463379 
	C677.330139,1009.097046 688.788025,1016.561646 703.878235,1016.790894 
	C718.999939,1017.020630 733.625488,1010.644958 739.411926,992.314270 
	C739.812988,991.043701 741.280579,989.206970 742.298523,989.176453 
	C750.744263,988.922974 759.200867,989.032837 768.203552,989.032837 
	C764.277832,1012.471863 751.912048,1028.851196 730.545471,1036.885742 
	C705.571350,1046.276611 681.648315,1043.384644 660.009460,1026.002930 
z"/>
<path fill="#000000" opacity="1.000000" stroke="none" 
	d="
M1236.949219,891.348938 
	C1236.977661,898.622986 1236.977661,905.427063 1236.977661,912.805603 
	C1213.983765,912.805603 1191.411011,912.805603 1168.421875,912.805603 
	C1168.421875,927.615051 1168.421875,941.851257 1168.421875,956.849976 
	C1188.664917,956.849976 1209.028442,956.849976 1229.688843,956.849976 
	C1229.688843,964.842285 1229.688843,972.076965 1229.688843,979.895630 
	C1209.226440,979.895630 1188.986206,979.895630 1168.170898,979.895630 
	C1168.170898,1000.038818 1168.170898,1019.613220 1168.170898,1039.590088 
	C1158.696655,1039.590088 1149.792847,1039.590088 1140.442383,1039.590088 
	C1140.442383,989.637878 1140.442383,939.620911 1140.442383,889.276489 
	C1142.228638,889.178589 1143.850830,889.013000 1145.473145,889.012085 
	C1174.137573,888.996338 1202.802002,888.966431 1231.465942,889.081116 
	C1233.286621,889.088379 1235.102661,890.252869 1236.949219,891.348938 
z"/>
<path fill="#000000" opacity="1.000000" stroke="none" 
	d="
M1018.023071,889.000000 
	C1046.132446,889.000000 1073.746582,889.000000 1101.678223,889.000000 
	C1101.678223,897.152954 1101.678223,904.720581 1101.678223,912.870972 
	C1079.250732,912.870972 1057.011841,912.870972 1034.390137,912.870972 
	C1034.390137,927.679565 1034.390137,941.913940 1034.390137,956.732544 
	C1054.607544,956.732544 1074.847412,956.732544 1095.540894,956.732544 
	C1095.540894,964.655151 1095.540894,972.009277 1095.540894,979.950256 
	C1075.170532,979.950256 1054.930786,979.950256 1034.119629,979.950256 
	C1034.119629,1000.091492 1034.119629,1019.664917 1034.119629,1039.614868 
	C1024.645752,1039.614868 1015.743896,1039.614868 1006.418335,1039.614868 
	C1006.418335,989.711365 1006.418335,939.814575 1006.418335,889.000000 
	C1010.039307,889.000000 1013.783508,889.000000 1018.023071,889.000000 
z"/>
<path fill="#000000" opacity="1.000000" stroke="none" 
	d="
M898.996033,1020.238525 
	C898.998291,1026.857056 898.998291,1033.000244 898.998291,1039.569580 
	C867.630859,1039.569580 836.629822,1039.569580 805.313599,1039.569580 
	C805.313599,989.524902 805.313599,939.653320 805.313599,889.390625 
	C814.338440,889.390625 823.236755,889.390625 832.861694,889.390625 
	C832.861694,931.360352 832.861694,973.359924 832.861694,1015.999817 
	C835.518433,1015.999817 837.462097,1015.999756 839.405762,1015.999817 
	C857.723389,1016.000549 876.041077,1016.024353 894.358582,1015.976746 
	C897.074402,1015.969666 899.524963,1015.951050 898.996033,1020.238525 
z"/>
<path fill="#000000" opacity="1.000000" stroke="none" 
	d="
M600.000000,1235.000000 
	C600.000000,1199.224854 600.000000,1163.949707 600.000000,1128.338745 
	C609.449463,1128.338745 618.349243,1128.338745 627.625793,1128.338745 
	C627.625793,1178.368896 627.625793,1228.256836 627.625793,1278.572754 
	C618.736633,1278.572754 609.833862,1278.572754 600.000000,1278.572754 
	C600.000000,1264.308228 600.000000,1249.904175 600.000000,1235.000000 
z"/>
<path fill="#000000" opacity="1.000000" stroke="none" 
	d="
M935.000000,958.000000 
	C935.000000,934.887329 935.000000,912.274658 935.000000,889.333374 
	C944.460754,889.333374 953.360413,889.333374 962.631226,889.333374 
	C962.631226,939.379883 962.631226,989.267700 962.631226,1039.578125 
	C953.723999,1039.578125 944.821472,1039.578125 935.000000,1039.578125 
	C935.000000,1012.628906 935.000000,985.564453 935.000000,958.000000 
z"/>
<path fill="#000000" opacity="1.000000" stroke="none" 
	d="
M1262.000000,1436.000000 
	C1262.000000,1427.890015 1262.000000,1420.280029 1262.000000,1411.434692 
	C1271.600220,1412.085083 1280.754150,1411.846313 1289.544922,1413.518066 
	C1300.535522,1415.608154 1305.289185,1424.358398 1306.621216,1434.605103 
	C1307.929565,1444.668335 1307.181396,1454.835449 1298.450317,1461.744751 
	C1294.641846,1464.758789 1289.546997,1467.055786 1284.764893,1467.718262 
	C1277.598267,1468.711304 1270.192261,1467.976562 1262.000000,1467.976562 
	C1262.000000,1457.289551 1262.000000,1446.894775 1262.000000,1436.000000 
M1271.000000,1446.492676 
	C1271.000000,1451.230225 1271.000000,1455.967773 1271.000000,1460.755615 
	C1281.069214,1461.313110 1290.633301,1462.189575 1295.996582,1452.552979 
	C1301.017456,1443.531494 1300.836060,1433.785034 1294.555664,1425.582886 
	C1288.865723,1418.151855 1279.999390,1418.613403 1271.000000,1419.311401 
	C1271.000000,1428.298218 1271.000000,1436.896484 1271.000000,1446.492676 
z"/>
<path fill="#000000" opacity="1.000000" stroke="none" 
	d="
M881.638672,1457.188232 
	C876.440918,1444.958008 876.123352,1433.237915 882.679260,1421.688232 
	C887.050537,1413.987183 897.518555,1410.015503 908.670471,1412.073242 
	C917.184570,1413.644165 924.054749,1420.994507 925.070312,1429.618652 
	C920.795654,1430.583862 917.588501,1430.236938 914.858398,1425.687622 
	C911.427734,1419.970581 905.376343,1417.953857 898.815430,1419.250610 
	C892.835754,1420.432617 886.459473,1428.199829 886.139771,1434.972412 
	C885.840271,1441.316162 885.090942,1447.750488 889.048462,1453.725098 
	C893.464539,1460.391968 899.651428,1461.713379 906.718811,1460.856934 
	C912.388245,1460.169922 916.246826,1455.328979 917.874146,1447.297729 
	C915.597351,1447.196655 913.383484,1447.061523 911.167664,1447.010742 
	C909.032227,1446.961670 906.894836,1447.000000 904.389587,1447.000000 
	C904.389587,1444.651001 904.389587,1442.741333 904.389587,1440.413818 
	C911.339783,1440.413818 918.372620,1440.413818 925.370544,1440.413818 
	C927.717224,1453.188354 922.857117,1463.022339 912.213379,1467.327881 
	C901.157471,1471.800049 888.624023,1467.739502 881.638672,1457.188232 
z"/>
<path fill="#000000" opacity="1.000000" stroke="none" 
	d="
M856.134766,1415.695557 
	C865.769409,1425.245483 864.046021,1438.352539 852.603455,1445.515381 
	C856.442078,1452.748901 860.275330,1459.972290 864.207642,1467.382324 
	C855.378235,1468.806885 855.413696,1468.788818 851.999939,1462.076294 
	C850.806519,1459.729614 848.872314,1457.643677 848.171509,1455.183716 
	C845.823425,1446.941162 840.217773,1445.607910 832.165344,1447.629517 
	C832.165344,1453.972534 832.165344,1460.685669 832.165344,1467.682617 
	C829.190796,1467.682617 826.950867,1467.682617 824.354370,1467.682617 
	C824.354370,1449.305054 824.354370,1431.072144 824.354370,1412.095337 
	C834.976929,1412.556763 845.751282,1409.958496 856.134766,1415.695557 
M835.703308,1419.006348 
	C834.488281,1419.739014 832.257507,1420.422852 832.219543,1421.212158 
	C831.926575,1427.302856 832.058289,1433.414062 832.058289,1440.380737 
	C837.330627,1439.888794 841.934814,1439.777588 846.410889,1438.962646 
	C852.273865,1437.895142 854.035156,1435.465332 853.997253,1429.848267 
	C853.958130,1424.051392 851.841370,1421.087402 846.435730,1420.018921 
	C843.225891,1419.384399 839.903015,1419.321533 835.703308,1419.006348 
z"/>
<path fill="#000000" opacity="1.000000" stroke="none" 
	d="
M759.240112,1424.465454 
	C767.501404,1412.175537 774.949402,1410.036255 787.647034,1412.300903 
	C795.606628,1413.720337 802.922913,1420.962524 805.162964,1432.844238 
	C806.534546,1440.119507 805.920105,1447.034058 803.537048,1453.692627 
	C799.834717,1464.036987 790.390686,1469.587769 778.983459,1468.992676 
	C768.805725,1468.461792 759.815796,1460.692139 757.112061,1449.943604 
	C754.954712,1441.367065 755.698914,1432.974121 759.240112,1424.465454 
M789.139648,1421.060181 
	C779.914185,1417.327393 773.215332,1418.734863 767.882019,1425.689087 
	C762.702087,1432.443237 762.270325,1448.940796 769.724976,1456.630127 
	C775.708740,1462.802246 789.608276,1463.090454 795.069458,1452.690796 
	C800.653992,1442.056152 798.175110,1428.211670 789.139648,1421.060181 
z"/>
<path fill="#000000" opacity="1.000000" stroke="none" 
	d="
M1093.999756,1418.159180 
	C1094.000000,1424.121948 1094.000000,1429.606323 1094.000000,1435.544189 
	C1103.325806,1435.544189 1112.342163,1435.544189 1121.936523,1435.544189 
	C1121.936523,1427.843384 1121.936523,1420.266235 1121.936523,1412.354980 
	C1124.742554,1412.354980 1126.983521,1412.354980 1129.614014,1412.354980 
	C1129.614014,1430.621216 1129.614014,1448.856689 1129.614014,1467.542969 
	C1127.329102,1467.542969 1124.981079,1467.542969 1122.055298,1467.542969 
	C1122.055298,1459.533691 1122.055298,1451.621704 1122.055298,1443.360107 
	C1112.597412,1443.360107 1103.698975,1443.360107 1094.218750,1443.360107 
	C1094.218750,1451.316895 1094.218750,1459.224609 1094.218750,1467.557617 
	C1091.303955,1467.557617 1088.958862,1467.557617 1086.298340,1467.557617 
	C1086.298340,1449.169189 1086.298340,1430.934937 1086.298340,1412.354248 
	C1088.736572,1412.354248 1090.977051,1412.354248 1093.748779,1412.354248 
	C1093.832642,1414.136597 1093.916138,1415.908691 1093.999756,1418.159180 
z"/>
<path fill="#000000" opacity="1.000000" stroke="none" 
	d="
M1062.316162,1444.711426 
	C1065.179688,1452.468262 1067.838623,1459.888550 1070.516357,1467.361328 
	C1062.496826,1468.841064 1062.496826,1468.841064 1060.022217,1461.650513 
	C1057.045288,1453.000244 1057.045288,1453.000244 1048.176758,1453.000000 
	C1047.843506,1453.000000 1047.510132,1453.000000 1047.176880,1453.000000 
	C1035.112549,1452.999878 1035.112671,1452.999878 1031.013184,1464.414429 
	C1029.610474,1468.320068 1029.610352,1468.320068 1021.376831,1467.669678 
	C1023.740845,1460.765503 1025.948853,1454.006836 1028.367554,1447.324585 
	C1032.120972,1436.954590 1036.229736,1426.707275 1039.730103,1416.254761 
	C1040.839600,1412.941650 1042.216553,1411.898926 1045.609985,1411.879761 
	C1049.209229,1411.859131 1050.930054,1413.094604 1052.076416,1416.499146 
	C1055.226929,1425.856567 1058.741211,1435.091431 1062.316162,1444.711426 
M1039.862915,1439.298584 
	C1039.195557,1441.278564 1038.528198,1443.258545 1037.705078,1445.700928 
	C1043.423950,1445.700928 1048.474365,1445.700928 1054.056274,1445.700928 
	C1051.300659,1437.510620 1048.677368,1429.713501 1045.688477,1420.829346 
	C1043.516846,1427.576416 1041.758057,1433.040649 1039.862915,1439.298584 
z"/>
<path fill="#000000" opacity="1.000000" stroke="none" 
	d="
M1228.933350,1417.126465 
	C1235.047974,1434.000488 1241.095459,1450.481689 1247.150024,1466.982544 
	C1240.104248,1469.131104 1239.143799,1468.659668 1237.002441,1462.620361 
	C1235.906372,1459.529419 1234.669067,1456.488403 1233.415039,1453.214600 
	C1226.200562,1453.214600 1218.916260,1453.214600 1211.502563,1453.214600 
	C1209.820557,1458.110840 1208.177856,1462.892456 1206.496948,1467.785034 
	C1203.722290,1467.785034 1201.102661,1467.785034 1197.892578,1467.785034 
	C1201.556763,1457.548340 1205.078491,1447.678955 1208.623169,1437.817749 
	C1211.070679,1431.009521 1213.509155,1424.197754 1216.036621,1417.419067 
	C1216.949341,1414.971191 1216.855347,1411.926514 1221.067627,1411.865356 
	C1225.065552,1411.807617 1227.721191,1412.760132 1228.933350,1417.126465 
M1226.134277,1432.289551 
	C1224.969360,1428.636597 1223.804321,1424.983765 1222.425903,1420.661499 
	C1219.636108,1429.400757 1217.069458,1437.440674 1214.392944,1445.825195 
	C1220.032593,1445.825195 1224.985718,1445.825195 1230.626709,1445.825195 
	C1229.175903,1441.316772 1227.837646,1437.157959 1226.134277,1432.289551 
z"/>
<path fill="#000000" opacity="1.000000" stroke="none" 
	d="
M952.627075,1435.393311 
	C960.748962,1435.719849 968.534485,1435.719849 976.647339,1435.719849 
	C976.647339,1438.415894 976.647339,1440.325684 976.647339,1442.792725 
	C968.719727,1442.792725 960.799683,1442.792725 952.442383,1442.792725 
	C952.442383,1449.021851 952.442383,1454.705444 952.442383,1460.965088 
	C961.192566,1460.965088 969.770325,1460.965088 978.660095,1460.965088 
	C978.660095,1463.435425 978.660095,1465.342285 978.660095,1467.629517 
	C967.357422,1467.629517 956.113647,1467.629517 944.433228,1467.629517 
	C944.433228,1449.293701 944.433228,1430.948608 944.433228,1412.300537 
	C955.864136,1412.300537 967.098816,1412.300537 978.659058,1412.300537 
	C978.659058,1414.428345 978.659058,1416.337524 978.659058,1418.811890 
	C970.029602,1418.811890 961.443787,1418.811890 952.290710,1418.811890 
	C952.290710,1424.586182 952.290710,1429.826416 952.627075,1435.393311 
z"/>
<path fill="#000000" opacity="1.000000" stroke="none" 
	d="
M1150.626221,1412.608643 
	C1161.744385,1412.281128 1172.526611,1412.281128 1183.644287,1412.281128 
	C1183.644287,1414.410767 1183.644287,1416.320557 1183.644287,1418.787109 
	C1175.391357,1418.787109 1167.138794,1418.787109 1158.445557,1418.787109 
	C1158.445557,1424.682617 1158.445557,1430.034058 1158.445557,1435.959595 
	C1166.185181,1435.959595 1173.764282,1435.959595 1181.656982,1435.959595 
	C1181.656982,1438.424683 1181.656982,1440.334106 1181.656982,1442.809082 
	C1174.032959,1442.809082 1166.447021,1442.809082 1158.433594,1442.809082 
	C1158.433594,1448.914795 1158.433594,1454.484497 1158.433594,1460.804932 
	C1166.626953,1460.804932 1175.001343,1460.804932 1183.669678,1460.804932 
	C1183.669678,1463.447510 1183.669678,1465.355835 1183.669678,1467.637207 
	C1172.671997,1467.637207 1161.762207,1467.637207 1150.290161,1467.637207 
	C1150.290161,1449.395630 1150.290161,1431.166016 1150.626221,1412.608643 
z"/>
<path fill="#000000" opacity="1.000000" stroke="none" 
	d="
M737.979492,1440.948975 
	C736.558777,1442.265259 735.174500,1443.814941 733.725037,1443.878540 
	C727.435608,1444.154419 721.127136,1443.996704 714.095093,1443.996704 
	C714.095093,1452.073242 714.095093,1459.772339 714.095093,1467.722656 
	C711.120789,1467.722656 708.882141,1467.722656 706.321655,1467.722656 
	C706.321655,1449.237427 706.321655,1431.015259 706.321655,1412.395752 
	C717.454651,1412.395752 728.471558,1412.395752 739.714844,1412.395752 
	C739.714844,1414.565552 739.714844,1416.473267 739.714844,1418.934692 
	C731.215820,1418.934692 722.974121,1418.934692 714.370972,1418.934692 
	C714.370972,1425.043213 714.370972,1430.606934 714.370972,1437.004883 
	C720.961975,1437.004883 727.547058,1437.077881 734.129028,1436.968628 
	C736.713074,1436.925781 738.401428,1437.456177 737.979492,1440.948975 
z"/>
<path fill="#4C6971" opacity="1.000000" stroke="none" 
	d="
M718.000061,1255.000000 
	C711.547363,1255.000000 705.594299,1255.000000 699.325012,1255.000000 
	C699.325012,1240.520508 699.325012,1226.620483 699.325012,1211.897461 
	C713.735107,1213.108154 728.283508,1209.142578 742.054077,1215.579102 
	C750.560120,1219.554932 756.564819,1230.472656 754.834412,1238.177734 
	C752.699097,1247.685669 743.842957,1254.716187 733.496338,1254.974365 
	C728.500366,1255.099121 723.498779,1254.998535 718.000061,1255.000000 
z"/>
<path fill="#4C6971" opacity="1.000000" stroke="none" 
	d="
M699.000000,1160.089233 
	C699.000000,1157.307251 699.000000,1155.011475 699.000000,1151.413818 
	C711.887573,1152.056274 724.295898,1152.070923 736.535706,1153.514648 
	C743.723572,1154.362671 747.784119,1160.299194 748.884216,1167.311646 
	C750.250061,1176.018433 747.715210,1183.729614 739.532166,1187.932007 
	C735.141296,1190.186890 729.912415,1191.463745 724.961914,1191.829102 
	C716.556274,1192.449341 708.071594,1191.999634 699.000000,1191.999634 
	C699.000000,1181.134155 699.000000,1170.854858 699.000000,1160.089233 
z"/>
<path fill="#4C6971" opacity="1.000000" stroke="none" 
	d="
M1205.187988,1254.007324 
	C1196.802002,1254.477783 1188.882080,1254.943848 1180.463867,1255.439331 
	C1180.463867,1220.702393 1180.463867,1186.704468 1180.463867,1152.211792 
	C1188.771729,1152.211792 1197.035156,1152.027466 1205.284058,1152.292480 
	C1209.190674,1152.417847 1213.107056,1153.224121 1216.955078,1154.027710 
	C1235.608032,1157.922119 1245.592529,1173.306763 1248.096924,1190.585327 
	C1249.738159,1201.910278 1249.132324,1213.013672 1246.445923,1223.983521 
	C1241.828247,1242.840088 1225.509644,1254.374756 1205.187988,1254.007324 
z"/>
<path fill="#4C6971" opacity="1.000000" stroke="none" 
	d="
M878.389771,1155.225952 
	C879.217407,1155.295166 880.248840,1155.506592 880.394470,1155.986816 
	C886.594177,1176.427124 892.716736,1196.890747 898.827148,1217.358032 
	C898.910583,1217.637329 898.719116,1217.998779 898.589844,1218.660400 
	C885.936218,1218.660400 873.220276,1218.660400 860.744751,1218.660400 
	C866.568359,1197.562134 872.374390,1176.527832 878.389771,1155.225952 
z"/>
<path fill="#4C6971" opacity="1.000000" stroke="none" 
	d="
M1271.000000,1445.993774 
	C1271.000000,1436.896484 1271.000000,1428.298218 1271.000000,1419.311401 
	C1279.999390,1418.613403 1288.865723,1418.151855 1294.555664,1425.582886 
	C1300.836060,1433.785034 1301.017456,1443.531494 1295.996582,1452.552979 
	C1290.633301,1462.189575 1281.069214,1461.313110 1271.000000,1460.755615 
	C1271.000000,1455.967773 1271.000000,1451.230225 1271.000000,1445.993774 
z"/>
<path fill="#4C6971" opacity="1.000000" stroke="none" 
	d="
M836.167114,1419.004028 
	C839.903015,1419.321533 843.225891,1419.384399 846.435730,1420.018921 
	C851.841370,1421.087402 853.958130,1424.051392 853.997253,1429.848267 
	C854.035156,1435.465332 852.273865,1437.895142 846.410889,1438.962646 
	C841.934814,1439.777588 837.330627,1439.888794 832.058289,1440.380737 
	C832.058289,1433.414062 831.926575,1427.302856 832.219543,1421.212158 
	C832.257507,1420.422852 834.488281,1419.739014 836.167114,1419.004028 
z"/>
<path fill="#4C6971" opacity="1.000000" stroke="none" 
	d="
M789.479736,1421.233643 
	C798.175110,1428.211670 800.653992,1442.056152 795.069458,1452.690796 
	C789.608276,1463.090454 775.708740,1462.802246 769.724976,1456.630127 
	C762.270325,1448.940796 762.702087,1432.443237 767.882019,1425.689087 
	C773.215332,1418.734863 779.914185,1417.327393 789.479736,1421.233643 
z"/>
<path fill="#4C6971" opacity="1.000000" stroke="none" 
	d="
M1039.931152,1438.901733 
	C1041.758057,1433.040649 1043.516846,1427.576416 1045.688477,1420.829346 
	C1048.677368,1429.713501 1051.300659,1437.510620 1054.056274,1445.700928 
	C1048.474365,1445.700928 1043.423950,1445.700928 1037.705078,1445.700928 
	C1038.528198,1443.258545 1039.195557,1441.278564 1039.931152,1438.901733 
z"/>
<path fill="#4C6971" opacity="1.000000" stroke="none" 
	d="
M1226.316895,1432.644287 
	C1227.837646,1437.157959 1229.175903,1441.316772 1230.626709,1445.825195 
	C1224.985718,1445.825195 1220.032593,1445.825195 1214.392944,1445.825195 
	C1217.069458,1437.440674 1219.636108,1429.400757 1222.425903,1420.661499 
	C1223.804321,1424.983765 1224.969360,1428.636597 1226.316895,1432.644287 
z"/>
</svg>