<svg version="1.1" id="Layer_1" xmlns="http://www.w3.org/2000/svg" xmlns:xlink="http://www.w3.org/1999/xlink" x="0px" y="0px"
	 width="100%" viewBox="0 0 2000 836" enable-background="new 0 0 2000 836" xml:space="preserve">
<path fill="#4C6971" opacity="1.000000" stroke="none" 
	d="
M1549.000000,837.000000 
	C1032.666748,837.000000 516.833496,837.000000 1.000208,837.000000 
	C1.000139,558.333496 1.000139,279.666962 1.000069,1.000320 
	C667.666443,1.000213 1334.332886,1.000213 2000.999512,1.000107 
	C2000.999634,279.666351 2000.999634,558.332703 2000.999756,836.999512 
	C1850.500000,837.000000 1700.000000,837.000000 1549.000000,837.000000 
M238.511871,646.283936 
	C223.772934,646.283936 209.033997,646.283936 192.998505,646.283936 
	C192.998505,660.037781 193.178009,673.295776 192.946655,686.546631 
	C192.727219,699.114929 181.398438,709.430298 169.616486,707.937073 
	C154.785309,706.057495 148.344879,698.199036 148.213730,683.779419 
	C147.693924,626.630493 147.521271,569.467773 148.262177,512.323730 
	C148.518738,492.536682 160.079346,486.870392 177.194763,489.329437 
	C182.890976,490.147827 187.347885,493.559021 190.242828,499.454010 
	C193.393951,505.870667 193.597321,512.536560 193.844559,519.125183 
	C194.361008,532.887085 194.000946,546.681824 194.000946,560.886353 
	C208.986801,560.886353 223.432083,560.892456 237.877197,560.846863 
	C238.200623,560.845886 238.522171,560.257080 238.975891,559.020569 
	C238.932999,545.706055 238.890121,532.391479 238.669434,518.249023 
	C237.777390,510.265167 237.523315,502.145538 235.858658,494.326141 
	C232.537811,478.727203 225.038818,465.462646 211.533279,456.231445 
	C199.413620,447.947540 185.536423,445.439972 171.322968,445.139313 
	C159.642868,444.892242 148.038391,446.376190 137.076950,451.043671 
	C123.212700,456.947144 113.458504,467.116760 107.287498,480.585510 
	C101.281975,493.693115 100.155602,507.959625 100.154961,522.059021 
	C100.152534,575.665894 100.757950,629.272522 100.930824,682.879883 
	C100.966866,694.056824 102.797470,704.759521 107.137321,714.992432 
	C111.830292,726.057800 119.162086,735.164856 129.600540,741.154846 
	C148.371628,751.926331 168.653961,753.090393 189.407166,748.920959 
	C205.982788,745.590820 219.192047,736.972778 228.091309,722.358887 
	C234.454269,711.909973 237.075073,700.314148 237.998566,688.255188 
	C238.287323,684.484680 238.562622,680.713196 238.975800,676.020325 
	C238.933151,666.372375 238.890503,656.724487 238.511871,646.283936 
M1573.000000,182.500000 
	C1573.000000,152.099319 1573.000000,121.698631 1573.000000,91.423897 
	C1558.507568,91.423897 1544.938354,91.423897 1530.891968,91.423897 
	C1530.891968,149.648590 1530.891968,207.451492 1530.891968,265.254395 
	C1530.644531,265.275391 1530.397095,265.296387 1530.149658,265.317413 
	C1515.320068,207.269394 1500.490356,149.221375 1485.718018,91.397636 
	C1465.567627,91.397636 1445.996338,91.397636 1426.342896,91.397636 
	C1426.342896,190.350250 1426.342896,288.904846 1426.342896,387.693176 
	C1440.587036,387.693176 1454.487427,387.693176 1468.832764,387.693176 
	C1468.832764,317.136414 1468.832764,246.883926 1468.832764,176.631439 
	C1469.151123,176.587234 1469.469604,176.543015 1469.787964,176.498810 
	C1487.976929,246.894745 1506.165894,317.290680 1524.348389,387.661743 
	C1540.629028,387.661743 1556.541138,387.661743 1573.000000,387.661743 
	C1573.000000,319.383331 1573.000000,251.441666 1573.000000,182.500000 
M1468.999023,578.500000 
	C1468.999023,535.760559 1468.999023,493.021088 1468.999023,450.322205 
	C1454.276978,450.322205 1440.358887,450.322205 1426.430176,450.322205 
	C1426.430176,549.329285 1426.430176,648.013611 1426.430176,746.847778 
	C1446.327515,746.847778 1465.796021,746.847778 1485.655151,746.847778 
	C1500.527954,688.629333 1515.395996,630.430298 1530.263916,572.231201 
	C1530.579712,572.273193 1530.895630,572.315186 1531.211426,572.357239 
	C1531.211426,630.433533 1531.211426,688.509888 1531.211426,746.566650 
	C1545.378784,746.566650 1559.082642,746.566650 1572.666992,746.566650 
	C1572.666992,647.562500 1572.666992,548.990967 1572.666992,450.210205 
	C1556.395874,450.210205 1540.457520,450.210205 1524.382568,450.210205 
	C1506.149780,520.777283 1487.955811,591.193359 1469.761963,661.609497 
	C1469.507690,661.559326 1469.253296,661.509216 1468.999023,661.459045 
	C1468.999023,634.139343 1468.999023,606.819702 1468.999023,578.500000 
M1086.000000,155.500000 
	C1086.000000,232.902618 1086.000000,310.305237 1086.000000,388.000000 
	C1097.253052,388.000000 1107.578857,388.108337 1117.901733,387.976929 
	C1138.014893,387.720947 1158.210083,388.344177 1178.212891,386.688049 
	C1195.428101,385.262695 1209.727783,376.737518 1219.625488,361.932281 
	C1228.332642,348.907715 1230.582642,334.005005 1230.798340,318.970551 
	C1231.023682,303.255859 1230.265503,287.461700 1228.791504,271.810181 
	C1227.758179,260.838257 1223.311646,250.593903 1215.122681,242.826645 
	C1209.860229,237.835144 1203.640137,233.853210 1197.870239,229.434830 
	C1206.046509,225.460175 1213.339478,219.370529 1217.988281,210.500320 
	C1222.248413,202.371552 1224.339111,193.723557 1225.152588,184.557358 
	C1226.697388,167.145676 1227.056519,149.780121 1222.878052,132.730621 
	C1219.036865,117.057266 1210.144653,104.971916 1195.068237,98.097153 
	C1182.616943,92.419411 1169.213989,91.450829 1155.901367,91.134361 
	C1134.747070,90.631508 1113.571899,91.000160 1092.405640,91.000175 
	C1090.460449,91.000175 1088.515381,91.000183 1086.000000,91.000183 
	C1086.000000,112.594574 1086.000000,133.547287 1086.000000,155.500000 
M1102.502319,450.000000 
	C1097.080933,450.000000 1091.659668,450.000000 1086.301025,450.000000 
	C1086.301025,549.381348 1086.301025,647.947754 1086.301025,746.741455 
	C1087.375854,746.841492 1088.174683,746.980347 1088.973389,746.980835 
	C1111.800049,746.994629 1134.631348,747.257812 1157.450928,746.858154 
	C1165.777710,746.712280 1174.192383,745.541992 1182.360718,743.845886 
	C1194.118652,741.404480 1204.412964,736.286560 1212.351196,726.514832 
	C1222.387329,714.160828 1225.136108,699.668518 1225.837280,684.646484 
	C1226.338013,673.914856 1225.672974,663.090027 1224.932373,652.347839 
	C1223.583252,632.777710 1215.318115,617.300110 1196.784790,608.044373 
	C1197.686401,607.420715 1198.250732,606.862366 1198.929932,606.585205 
	C1212.817871,600.917969 1222.010254,590.647522 1225.970337,576.477844 
	C1228.638428,566.931030 1230.293823,556.892212 1230.771484,546.994751 
	C1231.378052,534.431396 1230.422852,521.785156 1229.973877,509.180573 
	C1229.556152,497.456177 1226.337524,486.380096 1219.957153,476.620728 
	C1208.267456,458.740234 1190.536743,450.937744 1169.975586,450.183716 
	C1147.845093,449.372131 1125.661865,450.000092 1102.502319,450.000000 
M1620.511841,91.000000 
	C1616.096680,91.000000 1611.681519,91.000000 1607.398560,91.000000 
	C1607.398560,190.472687 1607.398560,289.022125 1607.398560,387.999908 
	C1609.766602,387.999908 1611.739014,387.999939 1613.711426,387.999939 
	C1638.204468,387.999969 1662.697388,388.012695 1687.190430,387.993713 
	C1696.920654,387.986176 1706.276245,385.759888 1714.871216,381.467773 
	C1737.762939,370.036163 1747.397827,349.752289 1747.753174,325.639954 
	C1748.543823,272.000275 1748.085327,218.340622 1747.909790,164.689865 
	C1747.882812,156.466797 1747.410278,148.099365 1745.834106,140.055313 
	C1741.593628,118.413109 1729.653687,102.449226 1708.104248,95.845253 
	C1698.323486,92.847893 1687.756958,91.599609 1677.483521,91.203812 
	C1658.849731,90.485931 1640.168701,91.000099 1620.511841,91.000000 
M1725.440430,462.965088 
	C1712.223633,453.056793 1697.154541,449.769836 1680.909790,449.939728 
	C1658.092651,450.178345 1635.271118,449.995117 1612.451538,450.010101 
	C1610.701416,450.011261 1608.951294,450.153137 1607.290283,450.225739 
	C1607.290283,549.399048 1607.290283,647.943420 1607.290283,746.998779 
	C1609.351196,746.998779 1611.144653,746.998779 1612.938110,746.998779 
	C1632.426392,746.998779 1651.917603,747.198242 1671.401611,746.907959 
	C1680.115112,746.778137 1688.867432,746.062988 1697.507202,744.905396 
	C1710.396973,743.178528 1721.945679,737.849426 1730.860840,728.366028 
	C1742.772461,715.695129 1747.750610,699.767334 1747.862793,682.790405 
	C1748.228271,627.492798 1748.080688,572.190979 1747.957520,516.891235 
	C1747.911499,496.175842 1742.192261,477.605347 1725.440430,462.965088 
M1320.500000,91.000000 
	C1312.502808,91.002289 1304.497925,90.825981 1296.514893,91.163422 
	C1294.989258,91.227905 1292.508789,93.114258 1292.236206,94.506233 
	C1290.245850,104.667610 1288.649048,114.908295 1287.039062,125.141403 
	C1284.559448,140.901901 1282.238770,156.687561 1279.720825,172.441788 
	C1277.230225,188.024323 1274.577759,203.581024 1271.997192,219.149200 
	C1269.443359,234.556046 1266.893799,249.963593 1264.335938,265.369751 
	C1262.235352,278.022308 1260.092529,290.667908 1258.028076,303.326324 
	C1255.408325,319.389130 1252.841675,335.460632 1250.266357,351.530640 
	C1248.344971,363.520172 1246.446045,375.513275 1244.516357,387.635498 
	C1259.467896,387.635498 1274.042114,387.635498 1288.554688,387.635498 
	C1289.403687,382.402740 1290.278687,377.546265 1290.966553,372.663422 
	C1292.711548,360.278320 1294.315430,347.873108 1296.117065,335.496521 
	C1296.463379,333.117401 1297.014404,330.874390 1300.615723,330.922485 
	C1315.607544,331.122742 1330.605469,330.908508 1345.595581,331.164337 
	C1347.062744,331.189392 1349.520020,333.212280 1349.769409,334.618011 
	C1351.148071,342.389923 1351.916504,350.267639 1353.024048,358.090698 
	C1354.423096,367.972626 1355.947388,377.836792 1357.412598,387.674438 
	C1373.455200,387.674438 1389.043213,387.674438 1404.957520,387.674438 
	C1388.839844,288.692505 1372.782349,190.080109 1356.648804,91.000000 
	C1344.755493,91.000000 1333.127686,91.000000 1320.500000,91.000000 
M1369.483154,668.002869 
	C1381.304199,595.495178 1393.125244,522.987488 1404.965942,450.360046 
	C1388.718750,450.360046 1372.979980,450.360046 1357.370605,450.360046 
	C1354.541138,469.801208 1351.765991,488.870422 1349.007690,507.822937 
	C1331.281616,507.822937 1314.483765,507.822937 1297.154175,507.822937 
	C1294.322876,488.658203 1291.504883,469.583740 1288.651245,450.267548 
	C1273.917969,450.267548 1259.314697,450.267548 1244.432495,450.267548 
	C1245.631226,457.439026 1246.860962,464.506256 1247.986450,471.590088 
	C1250.404663,486.811401 1252.708252,502.051117 1255.172241,517.264893 
	C1257.712402,532.950378 1260.419067,548.608887 1262.993530,564.289001 
	C1265.144775,577.391113 1267.182129,590.511902 1269.320312,603.616272 
	C1271.852539,619.136536 1274.469482,634.643066 1276.992676,650.164795 
	C1279.122803,663.269043 1281.120239,676.394836 1283.268921,689.496033 
	C1286.132446,706.955017 1289.252686,724.374207 1291.873657,741.868835 
	C1292.473267,745.870361 1293.745239,747.140808 1297.732788,747.079346 
	C1311.391968,746.868835 1325.056152,746.998779 1338.718506,746.998901 
	C1344.678345,746.998962 1350.638062,746.998901 1356.492188,746.998901 
	C1359.031616,732.256226 1361.582397,718.077759 1363.888672,703.859619 
	C1365.780029,692.199341 1367.380249,680.491882 1369.483154,668.002869 
M104.987984,128.621399 
	C103.325951,140.162781 100.281418,151.698990 100.238045,163.246445 
	C100.036125,217.009247 100.770905,270.774902 100.905571,324.540192 
	C100.932533,335.305481 102.807098,345.525116 106.751595,355.435791 
	C113.524567,372.453156 125.627701,383.797119 143.229004,388.976715 
	C154.860413,392.399475 166.619827,393.735901 178.875000,392.208191 
	C187.806320,391.094818 196.516632,389.617279 204.539505,385.682068 
	C226.757278,374.784271 235.703751,355.067108 237.769928,331.976227 
	C239.247101,315.467926 238.674255,298.775452 238.981216,282.164490 
	C239.010681,280.569763 238.792221,278.970459 238.688660,277.370056 
	C223.614288,277.370056 209.047867,277.370056 194.000488,277.370056 
	C194.000488,279.368134 194.030609,281.000183 193.995773,282.630890 
	C193.669479,297.906921 193.796707,313.210754 192.877380,328.451355 
	C191.787842,346.513336 177.927383,353.142212 160.775528,347.146942 
	C150.789749,343.656494 148.122864,334.470612 148.091690,325.003693 
	C147.906784,268.856201 147.958740,212.707687 148.086914,156.559875 
	C148.096146,152.519379 148.905396,148.345673 150.105286,144.470001 
	C152.916229,135.390610 161.522491,129.194305 170.811066,130.149094 
	C181.714340,131.269852 189.060181,133.779877 191.902634,146.543350 
	C193.323685,152.924393 193.664261,159.604645 193.920197,166.171906 
	C194.248566,174.597641 194.000000,183.045868 194.000000,191.691132 
	C209.260559,191.691132 223.826263,191.691132 238.999664,191.691132 
	C238.999664,189.619141 239.044968,187.829376 238.992203,186.042526 
	C238.673950,175.263092 238.500137,164.475540 237.935028,153.708710 
	C237.616364,147.637070 237.225235,141.464249 235.857391,135.571304 
	C230.651886,113.145157 217.706757,97.477943 195.171539,90.583290 
	C181.295059,86.337791 167.084549,85.778145 152.995483,88.278992 
	C139.135056,90.739250 126.042641,95.872887 117.162361,107.573647 
	C112.442688,113.792336 109.085815,121.045311 104.987984,128.621399 
M889.499878,746.998962 
	C896.584412,746.998962 903.669006,746.998962 910.671936,746.998962 
	C910.671936,731.930115 910.671936,717.680176 910.671936,702.801514 
	C883.981201,702.801514 857.611633,702.801514 831.329285,702.801514 
	C831.329285,676.919128 831.329285,651.671997 831.329285,625.792603 
	C852.690247,625.792603 873.730347,625.792603 894.658569,625.792603 
	C894.658569,611.237427 894.658569,597.320618 894.658569,582.772949 
	C873.286011,582.772949 852.245911,582.772949 831.343140,582.772949 
	C831.343140,552.556091 831.343140,522.976807 831.343140,492.768066 
	C858.050415,492.768066 884.420776,492.768066 910.648376,492.768066 
	C910.648376,478.215027 910.648376,464.297455 910.648376,450.437012 
	C867.936890,450.437012 825.577515,450.437012 783.327637,450.437012 
	C783.327637,549.433105 783.327637,647.991699 783.327637,746.998962 
	C818.599792,746.998962 853.549927,746.998962 889.499878,746.998962 
M878.500000,388.000000 
	C889.241089,388.000000 899.982178,388.000000 910.574951,388.000000 
	C910.574951,373.168945 910.574951,359.267365 910.574951,344.805725 
	C883.920227,344.805725 857.685730,344.805725 831.339050,344.805725 
	C831.339050,314.671478 831.339050,285.109314 831.339050,254.796906 
	C852.689941,254.796906 873.712830,254.796906 894.562683,254.796906 
	C894.562683,240.141434 894.562683,226.241180 894.562683,211.779297 
	C873.227417,211.779297 852.323242,211.779297 831.354797,211.779297 
	C831.354797,185.974808 831.354797,160.744781 831.354797,134.946289 
	C857.937256,134.946289 884.171631,134.946289 910.548950,134.946289 
	C910.548950,120.020538 910.548950,105.669724 910.548950,91.402863 
	C867.870544,91.402863 825.644287,91.402863 783.334473,91.402863 
	C783.334473,190.351593 783.334473,288.897095 783.334473,388.000000 
	C814.943848,388.000000 846.221924,388.000000 878.500000,388.000000 
M1826.000000,302.500000 
	C1826.000000,286.762146 1826.000000,271.024292 1826.000000,254.731262 
	C1847.821411,254.731262 1868.725464,254.731262 1889.617188,254.731262 
	C1889.617188,240.254913 1889.617188,226.354935 1889.617188,211.888168 
	C1868.338013,211.888168 1847.434448,211.888168 1826.300293,211.888168 
	C1826.300293,186.085114 1826.300293,160.855408 1826.300293,134.878525 
	C1853.278931,134.878525 1879.968506,134.878525 1906.603516,134.878525 
	C1906.603516,119.893753 1906.603516,105.660042 1906.603516,91.348343 
	C1863.980347,91.348343 1821.754517,91.348343 1779.456787,91.348343 
	C1779.456787,190.360809 1779.456787,289.024261 1779.456787,387.591431 
	C1822.140991,387.591431 1864.367188,387.591431 1906.629395,387.591431 
	C1906.629395,373.279999 1906.629395,359.380310 1906.629395,344.914734 
	C1879.697510,344.914734 1853.129517,344.914734 1826.000000,344.914734 
	C1826.000000,330.734192 1826.000000,317.117096 1826.000000,302.500000 
M1874.500000,703.001099 
	C1858.423218,703.001099 1842.346313,703.001099 1826.315186,703.001099 
	C1826.315186,676.945740 1826.315186,651.698730 1826.315186,625.820068 
	C1847.663086,625.820068 1868.703491,625.820068 1889.674072,625.820068 
	C1889.674072,611.266479 1889.674072,597.349792 1889.674072,582.802124 
	C1868.316406,582.802124 1847.276001,582.802124 1826.327393,582.802124 
	C1826.327393,552.586365 1826.327393,523.007141 1826.327393,492.799347 
	C1853.353394,492.799347 1880.056519,492.799347 1906.664307,492.799347 
	C1906.664307,478.248169 1906.664307,464.330994 1906.664307,450.418823 
	C1863.968506,450.418823 1821.608765,450.418823 1779.304199,450.418823 
	C1779.304199,549.397827 1779.304199,647.957642 1779.304199,746.606445 
	C1821.967163,746.606445 1864.325928,746.606445 1906.683838,746.606445 
	C1906.683838,731.963867 1906.683838,717.716125 1906.683838,703.001099 
	C1896.083496,703.001099 1885.791748,703.001099 1874.500000,703.001099 
M507.504639,746.998779 
	C543.575073,746.998779 579.645569,746.998779 615.682007,746.998779 
	C615.682007,731.948853 615.682007,717.698608 615.682007,702.818237 
	C590.332458,702.818237 565.294861,702.818237 540.321045,702.818237 
	C540.321045,675.601929 540.321045,649.021240 540.321045,621.807312 
	C560.342651,621.807312 580.049438,621.807312 599.665894,621.807312 
	C599.665894,607.251343 599.665894,593.333923 599.665894,578.784912 
	C579.633179,578.784912 559.926514,578.784912 539.782227,578.784912 
	C539.782227,535.571655 539.782227,492.993347 539.782227,450.427582 
	C523.625061,450.427582 507.923737,450.427582 492.313171,450.427582 
	C492.313171,549.418701 492.313171,647.981873 492.313171,746.998779 
	C497.247375,746.998779 501.877136,746.998779 507.504639,746.998779 
M517.500000,388.000000 
	C524.914124,388.000000 532.328186,388.000000 540.283325,388.000000 
	C540.283325,344.499329 540.283325,301.928955 540.283325,258.787354 
	C560.429016,258.787354 580.004517,258.787354 599.638184,258.787354 
	C599.638184,244.303284 599.638184,230.401169 599.638184,215.924255 
	C579.710205,215.924255 560.135376,215.924255 540.469177,215.924255 
	C540.469177,188.656540 540.469177,161.970413 540.469177,134.709930 
	C565.841003,134.709930 590.747681,134.709930 615.599731,134.709930 
	C615.599731,119.891586 615.599731,105.655464 615.599731,91.364243 
	C574.297791,91.364243 533.397217,91.364243 492.323792,91.364243 
	C492.323792,190.292847 492.323792,288.856964 492.323792,388.000000 
	C500.590240,388.000000 508.545105,388.000000 517.500000,388.000000 
M685.000000,294.500000 
	C685.000000,282.756927 685.000000,271.013855 685.000000,258.715485 
	C705.502258,258.715485 725.077576,258.715485 744.602295,258.715485 
	C744.602295,244.229919 744.602295,230.326935 744.602295,215.852386 
	C724.637329,215.852386 705.062256,215.852386 685.328369,215.852386 
	C685.328369,188.704605 685.328369,162.136780 685.328369,134.814590 
	C711.007385,134.814590 736.368958,134.814590 761.563843,134.814590 
	C761.563843,119.818275 761.563843,105.580841 761.563843,91.400139 
	C720.225464,91.400139 679.324585,91.400139 638.359619,91.400139 
	C638.359619,190.364853 638.359619,288.929016 638.359619,387.674469 
	C653.955933,387.674469 669.191101,387.674469 685.000000,387.674469 
	C685.000000,356.735016 685.000000,326.117493 685.000000,294.500000 
M745.000000,600.500000 
	C745.000000,593.415405 745.000000,586.330872 745.000000,578.814209 
	C724.604187,578.814209 705.018677,578.814209 684.815308,578.814209 
	C684.815308,535.663452 684.815308,492.966736 684.815308,450.323547 
	C668.936707,450.323547 653.686951,450.323547 638.385254,450.323547 
	C638.385254,549.325012 638.385254,648.002380 638.385254,746.700562 
	C679.677795,746.700562 720.585388,746.700562 761.601013,746.700562 
	C761.601013,732.033752 761.601013,717.668579 761.601013,702.844666 
	C735.956665,702.844666 710.707886,702.844666 685.398071,702.844666 
	C685.398071,675.681580 685.398071,648.984009 685.398071,621.832336 
	C705.378967,621.832336 724.964905,621.832336 745.000000,621.832336 
	C745.000000,614.753662 745.000000,608.126770 745.000000,600.500000 
M264.996246,721.500000 
	C264.996246,729.918396 264.996246,738.336853 264.996246,746.673645 
	C281.395294,746.673645 296.980255,746.673645 313.183899,746.673645 
	C313.183899,661.992493 313.183899,577.634155 313.183899,492.812805 
	C339.054871,492.812805 364.306396,492.812805 389.574280,492.812805 
	C389.574280,478.306610 389.574280,464.271484 389.574280,450.332855 
	C347.903442,450.332855 306.656586,450.332855 264.996246,450.332855 
	C264.996246,540.609985 264.996246,630.554993 264.996246,721.500000 
M265.000000,354.500000 
	C265.000000,365.571411 265.000000,376.642853 265.000000,387.595581 
	C307.143066,387.595581 348.364166,387.595581 389.636353,387.595581 
	C389.636353,373.290405 389.636353,359.392670 389.636353,344.933136 
	C364.048096,344.933136 338.816193,344.933136 312.883362,344.933136 
	C312.883362,260.045166 312.883362,175.720276 312.883362,91.371788 
	C296.606201,91.371788 281.042206,91.371788 265.000000,91.371788 
	C265.000000,178.995117 265.000000,266.247559 265.000000,354.500000 
M411.000305,455.649445 
	C411.000305,552.587769 411.000305,649.526062 411.000305,746.630371 
	C427.260529,746.630371 442.965027,746.630371 458.727539,746.630371 
	C458.727539,647.681335 458.727539,549.100769 458.727539,450.260376 
	C442.863342,450.260376 427.276947,450.260376 411.324554,450.260376 
	C411.211426,451.806274 411.106079,453.245911 411.000305,455.649445 
M459.000000,360.500000 
	C459.000000,270.775085 459.000000,181.050156 459.000000,91.413300 
	C442.529480,91.413300 426.960541,91.413300 411.360901,91.413300 
	C411.360901,190.383286 411.360901,288.939545 411.360901,387.675110 
	C427.290497,387.675110 442.857697,387.675110 459.000000,387.675110 
	C459.000000,378.741333 459.000000,370.120667 459.000000,360.500000 
M1052.000000,517.500000 
	C1052.000000,495.088715 1052.000000,472.677429 1052.000000,450.325226 
	C1035.935425,450.325226 1020.683716,450.325226 1005.405701,450.325226 
	C1005.405701,549.341675 1005.405701,648.032288 1005.405701,746.673340 
	C1021.065308,746.673340 1036.316895,746.673340 1052.000000,746.673340 
	C1052.000000,670.399170 1052.000000,594.449585 1052.000000,517.500000 
M1051.921753,92.876091 
	C1050.603516,92.252296 1049.303467,91.140366 1047.963745,91.090103 
	C1042.472046,90.884056 1036.968018,91.000694 1031.468628,91.000206 
	C1022.850159,90.999443 1014.231689,91.000000 1005.433594,91.000000 
	C1005.433594,190.281235 1005.433594,288.961121 1005.433594,387.601013 
	C1021.106445,387.601013 1036.342529,387.601013 1051.978271,387.601013 
	C1051.978271,289.407013 1051.978271,191.611343 1051.921753,92.876091 
z"/>
<path fill="#000000" opacity="1.000000" stroke="none" 
	d="
M1573.000000,183.000000 
	C1573.000000,251.441666 1573.000000,319.383331 1573.000000,387.661743 
	C1556.541138,387.661743 1540.629028,387.661743 1524.348389,387.661743 
	C1506.165894,317.290680 1487.976929,246.894745 1469.787964,176.498810 
	C1469.469604,176.543015 1469.151123,176.587234 1468.832764,176.631439 
	C1468.832764,246.883926 1468.832764,317.136414 1468.832764,387.693176 
	C1454.487427,387.693176 1440.587036,387.693176 1426.342896,387.693176 
	C1426.342896,288.904846 1426.342896,190.350250 1426.342896,91.397636 
	C1445.996338,91.397636 1465.567627,91.397636 1485.718018,91.397636 
	C1500.490356,149.221375 1515.320068,207.269394 1530.149658,265.317413 
	C1530.397095,265.296387 1530.644531,265.275391 1530.891968,265.254395 
	C1530.891968,207.451492 1530.891968,149.648590 1530.891968,91.423897 
	C1544.938354,91.423897 1558.507568,91.423897 1573.000000,91.423897 
	C1573.000000,121.698631 1573.000000,152.099319 1573.000000,183.000000 
z"/>
<path fill="#DADADA" opacity="1.000000" stroke="none" 
	d="
M1468.999023,579.000000 
	C1468.999023,606.819702 1468.999023,634.139343 1468.999023,661.459045 
	C1469.253296,661.509216 1469.507690,661.559326 1469.761963,661.609497 
	C1487.955811,591.193359 1506.149780,520.777283 1524.382568,450.210205 
	C1540.457520,450.210205 1556.395874,450.210205 1572.666992,450.210205 
	C1572.666992,548.990967 1572.666992,647.562500 1572.666992,746.566650 
	C1559.082642,746.566650 1545.378784,746.566650 1531.211426,746.566650 
	C1531.211426,688.509888 1531.211426,630.433533 1531.211426,572.357239 
	C1530.895630,572.315186 1530.579712,572.273193 1530.263916,572.231201 
	C1515.395996,630.430298 1500.527954,688.629333 1485.655151,746.847778 
	C1465.796021,746.847778 1446.327515,746.847778 1426.430176,746.847778 
	C1426.430176,648.013611 1426.430176,549.329285 1426.430176,450.322205 
	C1440.358887,450.322205 1454.276978,450.322205 1468.999023,450.322205 
	C1468.999023,493.021088 1468.999023,535.760559 1468.999023,579.000000 
z"/>
<path fill="#000000" opacity="1.000000" stroke="none" 
	d="
M1086.000000,155.000000 
	C1086.000000,133.547287 1086.000000,112.594574 1086.000000,91.000183 
	C1088.515381,91.000183 1090.460449,91.000175 1092.405640,91.000175 
	C1113.571899,91.000160 1134.747070,90.631508 1155.901367,91.134361 
	C1169.213989,91.450829 1182.616943,92.419411 1195.068237,98.097153 
	C1210.144653,104.971916 1219.036865,117.057266 1222.878052,132.730621 
	C1227.056519,149.780121 1226.697388,167.145676 1225.152588,184.557358 
	C1224.339111,193.723557 1222.248413,202.371552 1217.988281,210.500320 
	C1213.339478,219.370529 1206.046509,225.460175 1197.870239,229.434830 
	C1203.640137,233.853210 1209.860229,237.835144 1215.122681,242.826645 
	C1223.311646,250.593903 1227.758179,260.838257 1228.791504,271.810181 
	C1230.265503,287.461700 1231.023682,303.255859 1230.798340,318.970551 
	C1230.582642,334.005005 1228.332642,348.907715 1219.625488,361.932281 
	C1209.727783,376.737518 1195.428101,385.262695 1178.212891,386.688049 
	C1158.210083,388.344177 1138.014893,387.720947 1117.901733,387.976929 
	C1107.578857,388.108337 1097.253052,388.000000 1086.000000,388.000000 
	C1086.000000,310.305237 1086.000000,232.902618 1086.000000,155.000000 
M1153.482178,345.000000 
	C1155.977905,344.999847 1158.473633,345.008820 1160.969360,344.997986 
	C1172.754150,344.946808 1181.140259,338.725128 1181.775391,326.999695 
	C1182.703979,309.860016 1182.425537,292.609467 1181.668823,275.449951 
	C1181.421509,269.844025 1178.799927,264.156799 1173.240967,260.510864 
	C1160.652222,252.254272 1146.849121,255.832718 1133.330322,255.064514 
	C1133.330322,285.368927 1133.330322,314.902405 1133.330322,345.000000 
	C1139.931030,345.000000 1146.209473,345.000000 1153.482178,345.000000 
M1133.000000,184.500000 
	C1133.000000,193.564331 1133.000000,202.628662 1133.000000,211.975540 
	C1140.858765,211.975540 1147.936768,212.755951 1154.778931,211.816925 
	C1170.139404,209.708817 1176.726807,203.483063 1177.844360,188.432877 
	C1178.630249,177.847885 1178.587036,167.115860 1177.842163,156.524887 
	C1176.965332,144.053711 1172.521362,137.161591 1162.172974,135.502121 
	C1152.837402,134.005066 1143.072266,135.186188 1133.000000,135.186188 
	C1133.000000,151.643555 1133.000000,167.571777 1133.000000,184.500000 
z"/>
<path fill="#DADADA" opacity="1.000000" stroke="none" 
	d="
M1103.001953,450.000000 
	C1125.661865,450.000092 1147.845093,449.372131 1169.975586,450.183716 
	C1190.536743,450.937744 1208.267456,458.740234 1219.957153,476.620728 
	C1226.337524,486.380096 1229.556152,497.456177 1229.973877,509.180573 
	C1230.422852,521.785156 1231.378052,534.431396 1230.771484,546.994751 
	C1230.293823,556.892212 1228.638428,566.931030 1225.970337,576.477844 
	C1222.010254,590.647522 1212.817871,600.917969 1198.929932,606.585205 
	C1198.250732,606.862366 1197.686401,607.420715 1196.784790,608.044373 
	C1215.318115,617.300110 1223.583252,632.777710 1224.932373,652.347839 
	C1225.672974,663.090027 1226.338013,673.914856 1225.837280,684.646484 
	C1225.136108,699.668518 1222.387329,714.160828 1212.351196,726.514832 
	C1204.412964,736.286560 1194.118652,741.404480 1182.360718,743.845886 
	C1174.192383,745.541992 1165.777710,746.712280 1157.450928,746.858154 
	C1134.631348,747.257812 1111.800049,746.994629 1088.973389,746.980835 
	C1088.174683,746.980347 1087.375854,746.841492 1086.301025,746.741455 
	C1086.301025,647.947754 1086.301025,549.381348 1086.301025,450.000000 
	C1091.659668,450.000000 1097.080933,450.000000 1103.001953,450.000000 
M1179.613037,569.849243 
	C1185.452393,549.679871 1183.592773,529.156555 1181.596924,508.804504 
	C1180.851318,501.202148 1175.709839,494.649780 1167.096802,494.152008 
	C1155.943481,493.507446 1144.724609,493.994751 1133.367432,493.994751 
	C1133.367432,523.258118 1133.367432,552.954285 1133.367432,582.987732 
	C1141.371460,582.987732 1149.059082,583.520203 1156.640625,582.850525 
	C1165.741089,582.046631 1174.596069,579.940063 1179.613037,569.849243 
M1133.000000,682.499756 
	C1133.000000,689.244751 1133.000000,695.989746 1133.000000,703.000427 
	C1141.262695,703.000427 1148.744507,702.752991 1156.204346,703.053162 
	C1170.581055,703.631836 1177.181396,693.920715 1177.870850,681.671692 
	C1178.477661,670.892029 1178.462769,660.025024 1177.852539,649.245789 
	C1177.353394,640.426392 1174.120728,632.910767 1164.976318,628.879211 
	C1154.572021,624.292297 1143.961548,626.726257 1133.000000,625.960632 
	C1133.000000,644.956970 1133.000000,663.228455 1133.000000,682.499756 
z"/>
<path fill="#000000" opacity="1.000000" stroke="none" 
	d="
M1621.009521,91.000000 
	C1640.168701,91.000099 1658.849731,90.485931 1677.483521,91.203812 
	C1687.756958,91.599609 1698.323486,92.847893 1708.104248,95.845253 
	C1729.653687,102.449226 1741.593628,118.413109 1745.834106,140.055313 
	C1747.410278,148.099365 1747.882812,156.466797 1747.909790,164.689865 
	C1748.085327,218.340622 1748.543823,272.000275 1747.753174,325.639954 
	C1747.397827,349.752289 1737.762939,370.036163 1714.871216,381.467773 
	C1706.276245,385.759888 1696.920654,387.986176 1687.190430,387.993713 
	C1662.697388,388.012695 1638.204468,387.999969 1613.711426,387.999939 
	C1611.739014,387.999939 1609.766602,387.999908 1607.398560,387.999908 
	C1607.398560,289.022125 1607.398560,190.472687 1607.398560,91.000000 
	C1611.681519,91.000000 1616.096680,91.000000 1621.009521,91.000000 
M1661.625244,135.000092 
	C1659.540894,135.000092 1657.456665,135.000092 1655.348633,135.000092 
	C1655.348633,205.386246 1655.348633,274.928864 1655.348633,344.930481 
	C1664.644653,344.930481 1673.610840,345.176392 1682.549316,344.784760 
	C1685.329590,344.662933 1688.220337,343.139374 1690.739868,341.697479 
	C1699.589600,336.633179 1700.815430,327.605377 1700.862793,318.916534 
	C1701.141602,267.778992 1701.058350,216.639038 1700.913574,165.500397 
	C1700.898315,160.118011 1700.021484,154.670410 1698.947144,149.374191 
	C1697.267944,141.095917 1689.594482,135.124908 1681.089478,135.017044 
	C1674.927124,134.938873 1668.763062,135.000641 1661.625244,135.000092 
z"/>
<path fill="#DADADA" opacity="1.000000" stroke="none" 
	d="
M1725.702026,463.211365 
	C1742.192261,477.605347 1747.911499,496.175842 1747.957520,516.891235 
	C1748.080688,572.190979 1748.228271,627.492798 1747.862793,682.790405 
	C1747.750610,699.767334 1742.772461,715.695129 1730.860840,728.366028 
	C1721.945679,737.849426 1710.396973,743.178528 1697.507202,744.905396 
	C1688.867432,746.062988 1680.115112,746.778137 1671.401611,746.907959 
	C1651.917603,747.198242 1632.426392,746.998779 1612.938110,746.998779 
	C1611.144653,746.998779 1609.351196,746.998779 1607.290283,746.998779 
	C1607.290283,647.943420 1607.290283,549.399048 1607.290283,450.225739 
	C1608.951294,450.153137 1610.701416,450.011261 1612.451538,450.010101 
	C1635.271118,449.995117 1658.092651,450.178345 1680.909790,449.939728 
	C1697.154541,449.769836 1712.223633,453.056793 1725.702026,463.211365 
M1701.001099,580.500000 
	C1701.001099,561.676697 1701.064087,542.853088 1700.954346,524.030396 
	C1700.928589,519.596436 1700.706421,515.094055 1699.897705,510.749084 
	C1698.361694,502.494476 1694.408203,495.373962 1685.426270,494.188477 
	C1675.527222,492.881927 1665.432129,493.059998 1655.409180,492.590759 
	C1655.409180,563.372131 1655.409180,633.050720 1655.409180,702.988159 
	C1664.795044,702.988159 1673.813843,703.483154 1682.748901,702.831360 
	C1689.875122,702.311401 1695.646118,698.367188 1697.884033,691.273682 
	C1699.539185,686.026978 1700.817627,680.412109 1700.866211,674.948853 
	C1701.143311,643.801331 1701.000854,612.650024 1701.001099,580.500000 
z"/>
<path fill="#000000" opacity="1.000000" stroke="none" 
	d="
M1321.000000,91.000000 
	C1333.127686,91.000000 1344.755493,91.000000 1356.648804,91.000000 
	C1372.782349,190.080109 1388.839844,288.692505 1404.957520,387.674438 
	C1389.043213,387.674438 1373.455200,387.674438 1357.412598,387.674438 
	C1355.947388,377.836792 1354.423096,367.972626 1353.024048,358.090698 
	C1351.916504,350.267639 1351.148071,342.389923 1349.769409,334.618011 
	C1349.520020,333.212280 1347.062744,331.189392 1345.595581,331.164337 
	C1330.605469,330.908508 1315.607544,331.122742 1300.615723,330.922485 
	C1297.014404,330.874390 1296.463379,333.117401 1296.117065,335.496521 
	C1294.315430,347.873108 1292.711548,360.278320 1290.966553,372.663422 
	C1290.278687,377.546265 1289.403687,382.402740 1288.554688,387.635498 
	C1274.042114,387.635498 1259.467896,387.635498 1244.516357,387.635498 
	C1246.446045,375.513275 1248.344971,363.520172 1250.266357,351.530640 
	C1252.841675,335.460632 1255.408325,319.389130 1258.028076,303.326324 
	C1260.092529,290.667908 1262.235352,278.022308 1264.335938,265.369751 
	C1266.893799,249.963593 1269.443359,234.556046 1271.997192,219.149200 
	C1274.577759,203.581024 1277.230225,188.024323 1279.720825,172.441788 
	C1282.238770,156.687561 1284.559448,140.901901 1287.039062,125.141403 
	C1288.649048,114.908295 1290.245850,104.667610 1292.236206,94.506233 
	C1292.508789,93.114258 1294.989258,91.227905 1296.514893,91.163422 
	C1304.497925,90.825981 1312.502808,91.002289 1321.000000,91.000000 
M1329.040283,189.284760 
	C1327.176636,175.570969 1325.312988,161.857193 1323.449219,148.143402 
	C1323.052612,148.189590 1322.655884,148.235779 1322.259277,148.281967 
	C1315.793579,194.951996 1309.327881,241.622040 1302.815186,288.630737 
	C1316.542603,288.630737 1329.584351,288.630737 1343.190430,288.630737 
	C1341.665161,277.310181 1340.249634,266.413879 1338.717529,255.533981 
	C1336.861206,242.351944 1334.918335,229.182037 1332.989990,216.010254 
	C1331.728760,207.394913 1330.426758,198.785538 1329.040283,189.284760 
z"/>
<path fill="#DADADA" opacity="1.000000" stroke="none" 
	d="
M1369.296265,668.404053 
	C1367.380249,680.491882 1365.780029,692.199341 1363.888672,703.859619 
	C1361.582397,718.077759 1359.031616,732.256226 1356.492188,746.998901 
	C1350.638062,746.998901 1344.678345,746.998962 1338.718506,746.998901 
	C1325.056152,746.998779 1311.391968,746.868835 1297.732788,747.079346 
	C1293.745239,747.140808 1292.473267,745.870361 1291.873657,741.868835 
	C1289.252686,724.374207 1286.132446,706.955017 1283.268921,689.496033 
	C1281.120239,676.394836 1279.122803,663.269043 1276.992676,650.164795 
	C1274.469482,634.643066 1271.852539,619.136536 1269.320312,603.616272 
	C1267.182129,590.511902 1265.144775,577.391113 1262.993530,564.289001 
	C1260.419067,548.608887 1257.712402,532.950378 1255.172241,517.264893 
	C1252.708252,502.051117 1250.404663,486.811401 1247.986450,471.590088 
	C1246.860962,464.506256 1245.631226,457.439026 1244.432495,450.267548 
	C1259.314697,450.267548 1273.917969,450.267548 1288.651245,450.267548 
	C1291.504883,469.583740 1294.322876,488.658203 1297.154175,507.822937 
	C1314.483765,507.822937 1331.281616,507.822937 1349.007690,507.822937 
	C1351.765991,488.870422 1354.541138,469.801208 1357.370605,450.360046 
	C1372.979980,450.360046 1388.718750,450.360046 1404.965942,450.360046 
	C1393.125244,522.987488 1381.304199,595.495178 1369.296265,668.404053 
M1303.994873,556.677734 
	C1304.328857,559.448669 1304.646484,562.221741 1304.999756,564.990234 
	C1306.369629,575.727295 1307.637329,586.479065 1309.154541,597.195374 
	C1311.335815,612.601440 1313.787842,627.969055 1315.964233,643.375732 
	C1318.153320,658.872375 1320.146851,674.396606 1322.226074,689.908813 
	C1322.609985,689.933777 1322.994019,689.958740 1323.377930,689.983765 
	C1329.993286,643.135437 1336.608521,596.287170 1343.245361,549.286804 
	C1329.264160,549.286804 1316.333008,549.286804 1302.769287,549.286804 
	C1303.220581,551.712891 1303.598999,553.747559 1303.994873,556.677734 
z"/>
<path fill="#000000" opacity="1.000000" stroke="none" 
	d="
M105.050880,128.226410 
	C109.085815,121.045311 112.442688,113.792336 117.162361,107.573647 
	C126.042641,95.872887 139.135056,90.739250 152.995483,88.278992 
	C167.084549,85.778145 181.295059,86.337791 195.171539,90.583290 
	C217.706757,97.477943 230.651886,113.145157 235.857391,135.571304 
	C237.225235,141.464249 237.616364,147.637070 237.935028,153.708710 
	C238.500137,164.475540 238.673950,175.263092 238.992203,186.042526 
	C239.044968,187.829376 238.999664,189.619141 238.999664,191.691132 
	C223.826263,191.691132 209.260559,191.691132 194.000000,191.691132 
	C194.000000,183.045868 194.248566,174.597641 193.920197,166.171906 
	C193.664261,159.604645 193.323685,152.924393 191.902634,146.543350 
	C189.060181,133.779877 181.714340,131.269852 170.811066,130.149094 
	C161.522491,129.194305 152.916229,135.390610 150.105286,144.470001 
	C148.905396,148.345673 148.096146,152.519379 148.086914,156.559875 
	C147.958740,212.707687 147.906784,268.856201 148.091690,325.003693 
	C148.122864,334.470612 150.789749,343.656494 160.775528,347.146942 
	C177.927383,353.142212 191.787842,346.513336 192.877380,328.451355 
	C193.796707,313.210754 193.669479,297.906921 193.995773,282.630890 
	C194.030609,281.000183 194.000488,279.368134 194.000488,277.370056 
	C209.047867,277.370056 223.614288,277.370056 238.688660,277.370056 
	C238.792221,278.970459 239.010681,280.569763 238.981216,282.164490 
	C238.674255,298.775452 239.247101,315.467926 237.769928,331.976227 
	C235.703751,355.067108 226.757278,374.784271 204.539505,385.682068 
	C196.516632,389.617279 187.806320,391.094818 178.875000,392.208191 
	C166.619827,393.735901 154.860413,392.399475 143.229004,388.976715 
	C125.627701,383.797119 113.524567,372.453156 106.751595,355.435791 
	C102.807098,345.525116 100.932533,335.305481 100.905571,324.540192 
	C100.770905,270.774902 100.036125,217.009247 100.238045,163.246445 
	C100.281418,151.698990 103.325951,140.162781 105.050880,128.226410 
z"/>
<path fill="#DADADA" opacity="1.000000" stroke="none" 
	d="
M238.844604,559.942505 
	C238.522171,560.257080 238.200623,560.845886 237.877197,560.846863 
	C223.432083,560.892456 208.986801,560.886353 194.000946,560.886353 
	C194.000946,546.681824 194.361008,532.887085 193.844559,519.125183 
	C193.597321,512.536560 193.393951,505.870667 190.242828,499.454010 
	C187.347885,493.559021 182.890976,490.147827 177.194763,489.329437 
	C160.079346,486.870392 148.518738,492.536682 148.262177,512.323730 
	C147.521271,569.467773 147.693924,626.630493 148.213730,683.779419 
	C148.344879,698.199036 154.785309,706.057495 169.616486,707.937073 
	C181.398438,709.430298 192.727219,699.114929 192.946655,686.546631 
	C193.178009,673.295776 192.998505,660.037781 192.998505,646.283936 
	C209.033997,646.283936 223.772934,646.283936 238.497192,647.044189 
	C238.603027,657.516968 238.723557,667.229553 238.844086,676.942139 
	C238.562622,680.713196 238.287323,684.484680 237.998566,688.255188 
	C237.075073,700.314148 234.454269,711.909973 228.091309,722.358887 
	C219.192047,736.972778 205.982788,745.590820 189.407166,748.920959 
	C168.653961,753.090393 148.371628,751.926331 129.600540,741.154846 
	C119.162086,735.164856 111.830292,726.057800 107.137321,714.992432 
	C102.797470,704.759521 100.966866,694.056824 100.930824,682.879883 
	C100.757950,629.272522 100.152534,575.665894 100.154961,522.059021 
	C100.155602,507.959625 101.281975,493.693115 107.287498,480.585510 
	C113.458504,467.116760 123.212700,456.947144 137.076950,451.043671 
	C148.038391,446.376190 159.642868,444.892242 171.322968,445.139313 
	C185.536423,445.439972 199.413620,447.947540 211.533279,456.231445 
	C225.038818,465.462646 232.537811,478.727203 235.858658,494.326141 
	C237.523315,502.145538 237.777390,510.265167 238.575714,519.026855 
	C238.321259,528.914185 238.050659,538.023682 238.048172,547.133118 
	C238.047012,551.402832 238.563004,555.672729 238.844604,559.942505 
z"/>
<path fill="#DADADA" opacity="1.000000" stroke="none" 
	d="
M888.999939,746.998962 
	C853.549927,746.998962 818.599792,746.998962 783.327637,746.998962 
	C783.327637,647.991699 783.327637,549.433105 783.327637,450.437012 
	C825.577515,450.437012 867.936890,450.437012 910.648376,450.437012 
	C910.648376,464.297455 910.648376,478.215027 910.648376,492.768066 
	C884.420776,492.768066 858.050415,492.768066 831.343140,492.768066 
	C831.343140,522.976807 831.343140,552.556091 831.343140,582.772949 
	C852.245911,582.772949 873.286011,582.772949 894.658569,582.772949 
	C894.658569,597.320618 894.658569,611.237427 894.658569,625.792603 
	C873.730347,625.792603 852.690247,625.792603 831.329285,625.792603 
	C831.329285,651.671997 831.329285,676.919128 831.329285,702.801514 
	C857.611633,702.801514 883.981201,702.801514 910.671936,702.801514 
	C910.671936,717.680176 910.671936,731.930115 910.671936,746.998962 
	C903.669006,746.998962 896.584412,746.998962 888.999939,746.998962 
z"/>
<path fill="#000000" opacity="1.000000" stroke="none" 
	d="
M878.000000,388.000000 
	C846.221924,388.000000 814.943848,388.000000 783.334473,388.000000 
	C783.334473,288.897095 783.334473,190.351593 783.334473,91.402863 
	C825.644287,91.402863 867.870544,91.402863 910.548950,91.402863 
	C910.548950,105.669724 910.548950,120.020538 910.548950,134.946289 
	C884.171631,134.946289 857.937256,134.946289 831.354797,134.946289 
	C831.354797,160.744781 831.354797,185.974808 831.354797,211.779297 
	C852.323242,211.779297 873.227417,211.779297 894.562683,211.779297 
	C894.562683,226.241180 894.562683,240.141434 894.562683,254.796906 
	C873.712830,254.796906 852.689941,254.796906 831.339050,254.796906 
	C831.339050,285.109314 831.339050,314.671478 831.339050,344.805725 
	C857.685730,344.805725 883.920227,344.805725 910.574951,344.805725 
	C910.574951,359.267365 910.574951,373.168945 910.574951,388.000000 
	C899.982178,388.000000 889.241089,388.000000 878.000000,388.000000 
z"/>
<path fill="#000000" opacity="1.000000" stroke="none" 
	d="
M1826.000000,303.000000 
	C1826.000000,317.117096 1826.000000,330.734192 1826.000000,344.914734 
	C1853.129517,344.914734 1879.697510,344.914734 1906.629395,344.914734 
	C1906.629395,359.380310 1906.629395,373.279999 1906.629395,387.591431 
	C1864.367188,387.591431 1822.140991,387.591431 1779.456787,387.591431 
	C1779.456787,289.024261 1779.456787,190.360809 1779.456787,91.348343 
	C1821.754517,91.348343 1863.980347,91.348343 1906.603516,91.348343 
	C1906.603516,105.660042 1906.603516,119.893753 1906.603516,134.878525 
	C1879.968506,134.878525 1853.278931,134.878525 1826.300293,134.878525 
	C1826.300293,160.855408 1826.300293,186.085114 1826.300293,211.888168 
	C1847.434448,211.888168 1868.338013,211.888168 1889.617188,211.888168 
	C1889.617188,226.354935 1889.617188,240.254913 1889.617188,254.731262 
	C1868.725464,254.731262 1847.821411,254.731262 1826.000000,254.731262 
	C1826.000000,271.024292 1826.000000,286.762146 1826.000000,303.000000 
z"/>
<path fill="#DADADA" opacity="1.000000" stroke="none" 
	d="
M1875.000000,703.001099 
	C1885.791748,703.001099 1896.083496,703.001099 1906.683838,703.001099 
	C1906.683838,717.716125 1906.683838,731.963867 1906.683838,746.606445 
	C1864.325928,746.606445 1821.967163,746.606445 1779.304199,746.606445 
	C1779.304199,647.957642 1779.304199,549.397827 1779.304199,450.418823 
	C1821.608765,450.418823 1863.968506,450.418823 1906.664307,450.418823 
	C1906.664307,464.330994 1906.664307,478.248169 1906.664307,492.799347 
	C1880.056519,492.799347 1853.353394,492.799347 1826.327393,492.799347 
	C1826.327393,523.007141 1826.327393,552.586365 1826.327393,582.802124 
	C1847.276001,582.802124 1868.316406,582.802124 1889.674072,582.802124 
	C1889.674072,597.349792 1889.674072,611.266479 1889.674072,625.820068 
	C1868.703491,625.820068 1847.663086,625.820068 1826.315186,625.820068 
	C1826.315186,651.698730 1826.315186,676.945740 1826.315186,703.001099 
	C1842.346313,703.001099 1858.423218,703.001099 1875.000000,703.001099 
z"/>
<path fill="#DADADA" opacity="1.000000" stroke="none" 
	d="
M507.005768,746.998779 
	C501.877136,746.998779 497.247375,746.998779 492.313171,746.998779 
	C492.313171,647.981873 492.313171,549.418701 492.313171,450.427582 
	C507.923737,450.427582 523.625061,450.427582 539.782227,450.427582 
	C539.782227,492.993347 539.782227,535.571655 539.782227,578.784912 
	C559.926514,578.784912 579.633179,578.784912 599.665894,578.784912 
	C599.665894,593.333923 599.665894,607.251343 599.665894,621.807312 
	C580.049438,621.807312 560.342651,621.807312 540.321045,621.807312 
	C540.321045,649.021240 540.321045,675.601929 540.321045,702.818237 
	C565.294861,702.818237 590.332458,702.818237 615.682007,702.818237 
	C615.682007,717.698608 615.682007,731.948853 615.682007,746.998779 
	C579.645569,746.998779 543.575073,746.998779 507.005768,746.998779 
z"/>
<path fill="#000000" opacity="1.000000" stroke="none" 
	d="
M517.000000,388.000000 
	C508.545105,388.000000 500.590240,388.000000 492.323792,388.000000 
	C492.323792,288.856964 492.323792,190.292847 492.323792,91.364243 
	C533.397217,91.364243 574.297791,91.364243 615.599731,91.364243 
	C615.599731,105.655464 615.599731,119.891586 615.599731,134.709930 
	C590.747681,134.709930 565.841003,134.709930 540.469177,134.709930 
	C540.469177,161.970413 540.469177,188.656540 540.469177,215.924255 
	C560.135376,215.924255 579.710205,215.924255 599.638184,215.924255 
	C599.638184,230.401169 599.638184,244.303284 599.638184,258.787354 
	C580.004517,258.787354 560.429016,258.787354 540.283325,258.787354 
	C540.283325,301.928955 540.283325,344.499329 540.283325,388.000000 
	C532.328186,388.000000 524.914124,388.000000 517.000000,388.000000 
z"/>
<path fill="#000000" opacity="1.000000" stroke="none" 
	d="
M685.000000,295.000000 
	C685.000000,326.117493 685.000000,356.735016 685.000000,387.674469 
	C669.191101,387.674469 653.955933,387.674469 638.359619,387.674469 
	C638.359619,288.929016 638.359619,190.364853 638.359619,91.400139 
	C679.324585,91.400139 720.225464,91.400139 761.563843,91.400139 
	C761.563843,105.580841 761.563843,119.818275 761.563843,134.814590 
	C736.368958,134.814590 711.007385,134.814590 685.328369,134.814590 
	C685.328369,162.136780 685.328369,188.704605 685.328369,215.852386 
	C705.062256,215.852386 724.637329,215.852386 744.602295,215.852386 
	C744.602295,230.326935 744.602295,244.229919 744.602295,258.715485 
	C725.077576,258.715485 705.502258,258.715485 685.000000,258.715485 
	C685.000000,271.013855 685.000000,282.756927 685.000000,295.000000 
z"/>
<path fill="#DADADA" opacity="1.000000" stroke="none" 
	d="
M745.000000,600.999878 
	C745.000000,608.126770 745.000000,614.753662 745.000000,621.832336 
	C724.964905,621.832336 705.378967,621.832336 685.398071,621.832336 
	C685.398071,648.984009 685.398071,675.681580 685.398071,702.844666 
	C710.707886,702.844666 735.956665,702.844666 761.601013,702.844666 
	C761.601013,717.668579 761.601013,732.033752 761.601013,746.700562 
	C720.585388,746.700562 679.677795,746.700562 638.385254,746.700562 
	C638.385254,648.002380 638.385254,549.325012 638.385254,450.323547 
	C653.686951,450.323547 668.936707,450.323547 684.815308,450.323547 
	C684.815308,492.966736 684.815308,535.663452 684.815308,578.814209 
	C705.018677,578.814209 724.604187,578.814209 745.000000,578.814209 
	C745.000000,586.330872 745.000000,593.415405 745.000000,600.999878 
z"/>
<path fill="#DADADA" opacity="1.000000" stroke="none" 
	d="
M264.996246,721.000000 
	C264.996246,630.554993 264.996246,540.609985 264.996246,450.332855 
	C306.656586,450.332855 347.903442,450.332855 389.574280,450.332855 
	C389.574280,464.271484 389.574280,478.306610 389.574280,492.812805 
	C364.306396,492.812805 339.054871,492.812805 313.183899,492.812805 
	C313.183899,577.634155 313.183899,661.992493 313.183899,746.673645 
	C296.980255,746.673645 281.395294,746.673645 264.996246,746.673645 
	C264.996246,738.336853 264.996246,729.918396 264.996246,721.000000 
z"/>
<path fill="#000000" opacity="1.000000" stroke="none" 
	d="
M265.000000,354.000000 
	C265.000000,266.247559 265.000000,178.995117 265.000000,91.371788 
	C281.042206,91.371788 296.606201,91.371788 312.883362,91.371788 
	C312.883362,175.720276 312.883362,260.045166 312.883362,344.933136 
	C338.816193,344.933136 364.048096,344.933136 389.636353,344.933136 
	C389.636353,359.392670 389.636353,373.290405 389.636353,387.595581 
	C348.364166,387.595581 307.143066,387.595581 265.000000,387.595581 
	C265.000000,376.642853 265.000000,365.571411 265.000000,354.000000 
z"/>
<path fill="#DADADA" opacity="1.000000" stroke="none" 
	d="
M411.000488,455.167480 
	C411.106079,453.245911 411.211426,451.806274 411.324554,450.260376 
	C427.276947,450.260376 442.863342,450.260376 458.727539,450.260376 
	C458.727539,549.100769 458.727539,647.681335 458.727539,746.630371 
	C442.965027,746.630371 427.260529,746.630371 411.000305,746.630371 
	C411.000305,649.526062 411.000305,552.587769 411.000488,455.167480 
z"/>
<path fill="#000000" opacity="1.000000" stroke="none" 
	d="
M459.000000,361.000000 
	C459.000000,370.120667 459.000000,378.741333 459.000000,387.675110 
	C442.857697,387.675110 427.290497,387.675110 411.360901,387.675110 
	C411.360901,288.939545 411.360901,190.383286 411.360901,91.413300 
	C426.960541,91.413300 442.529480,91.413300 459.000000,91.413300 
	C459.000000,181.050156 459.000000,270.775085 459.000000,361.000000 
z"/>
<path fill="#DADADA" opacity="1.000000" stroke="none" 
	d="
M1052.000000,518.000000 
	C1052.000000,594.449585 1052.000000,670.399170 1052.000000,746.673340 
	C1036.316895,746.673340 1021.065308,746.673340 1005.405701,746.673340 
	C1005.405701,648.032288 1005.405701,549.341675 1005.405701,450.325226 
	C1020.683716,450.325226 1035.935425,450.325226 1052.000000,450.325226 
	C1052.000000,472.677429 1052.000000,495.088715 1052.000000,518.000000 
z"/>
<path fill="#000000" opacity="1.000000" stroke="none" 
	d="
M1051.949951,93.345886 
	C1051.978271,191.611343 1051.978271,289.407013 1051.978271,387.601013 
	C1036.342529,387.601013 1021.106445,387.601013 1005.433594,387.601013 
	C1005.433594,288.961121 1005.433594,190.281235 1005.433594,91.000000 
	C1014.231689,91.000000 1022.850159,90.999443 1031.468628,91.000206 
	C1036.968018,91.000694 1042.472046,90.884056 1047.963745,91.090103 
	C1049.303467,91.140366 1050.603516,92.252296 1051.949951,93.345886 
z"/>
<path fill="#FFFFFF" opacity="1.000000" stroke="none" 
	d="
M238.910248,559.481567 
	C238.563004,555.672729 238.047012,551.402832 238.048172,547.133118 
	C238.050659,538.023682 238.321259,528.914185 238.664612,519.440857 
	C238.890121,532.391479 238.932999,545.706055 238.910248,559.481567 
z"/>
<path fill="#FFFFFF" opacity="1.000000" stroke="none" 
	d="
M238.909943,676.481201 
	C238.723557,667.229553 238.603027,657.516968 238.665176,647.440430 
	C238.890503,656.724487 238.933151,666.372375 238.909943,676.481201 
z"/>
<path fill="#4C6971" opacity="1.000000" stroke="none" 
	d="
M1152.985107,345.000000 
	C1146.209473,345.000000 1139.931030,345.000000 1133.330322,345.000000 
	C1133.330322,314.902405 1133.330322,285.368927 1133.330322,255.064514 
	C1146.849121,255.832718 1160.652222,252.254272 1173.240967,260.510864 
	C1178.799927,264.156799 1181.421509,269.844025 1181.668823,275.449951 
	C1182.425537,292.609467 1182.703979,309.860016 1181.775391,326.999695 
	C1181.140259,338.725128 1172.754150,344.946808 1160.969360,344.997986 
	C1158.473633,345.008820 1155.977905,344.999847 1152.985107,345.000000 
z"/>
<path fill="#4C6971" opacity="1.000000" stroke="none" 
	d="
M1133.000000,184.000000 
	C1133.000000,167.571777 1133.000000,151.643555 1133.000000,135.186188 
	C1143.072266,135.186188 1152.837402,134.005066 1162.172974,135.502121 
	C1172.521362,137.161591 1176.965332,144.053711 1177.842163,156.524887 
	C1178.587036,167.115860 1178.630249,177.847885 1177.844360,188.432877 
	C1176.726807,203.483063 1170.139404,209.708817 1154.778931,211.816925 
	C1147.936768,212.755951 1140.858765,211.975540 1133.000000,211.975540 
	C1133.000000,202.628662 1133.000000,193.564331 1133.000000,184.000000 
z"/>
<path fill="#4C6971" opacity="1.000000" stroke="none" 
	d="
M1179.374512,570.155518 
	C1174.596069,579.940063 1165.741089,582.046631 1156.640625,582.850525 
	C1149.059082,583.520203 1141.371460,582.987732 1133.367432,582.987732 
	C1133.367432,552.954285 1133.367432,523.258118 1133.367432,493.994751 
	C1144.724609,493.994751 1155.943481,493.507446 1167.096802,494.152008 
	C1175.709839,494.649780 1180.851318,501.202148 1181.596924,508.804504 
	C1183.592773,529.156555 1185.452393,549.679871 1179.374512,570.155518 
z"/>
<path fill="#4C6971" opacity="1.000000" stroke="none" 
	d="
M1133.000000,681.999817 
	C1133.000000,663.228455 1133.000000,644.956970 1133.000000,625.960632 
	C1143.961548,626.726257 1154.572021,624.292297 1164.976318,628.879211 
	C1174.120728,632.910767 1177.353394,640.426392 1177.852539,649.245789 
	C1178.462769,660.025024 1178.477661,670.892029 1177.870850,681.671692 
	C1177.181396,693.920715 1170.581055,703.631836 1156.204346,703.053162 
	C1148.744507,702.752991 1141.262695,703.000427 1133.000000,703.000427 
	C1133.000000,695.989746 1133.000000,689.244751 1133.000000,681.999817 
z"/>
<path fill="#4C6971" opacity="1.000000" stroke="none" 
	d="
M1662.112549,135.000061 
	C1668.763062,135.000641 1674.927124,134.938873 1681.089478,135.017044 
	C1689.594482,135.124908 1697.267944,141.095917 1698.947144,149.374191 
	C1700.021484,154.670410 1700.898315,160.118011 1700.913574,165.500397 
	C1701.058350,216.639038 1701.141602,267.778992 1700.862793,318.916534 
	C1700.815430,327.605377 1699.589600,336.633179 1690.739868,341.697479 
	C1688.220337,343.139374 1685.329590,344.662933 1682.549316,344.784760 
	C1673.610840,345.176392 1664.644653,344.930481 1655.348633,344.930481 
	C1655.348633,274.928864 1655.348633,205.386246 1655.348633,135.000092 
	C1657.456665,135.000092 1659.540894,135.000092 1662.112549,135.000061 
z"/>
<path fill="#4C6971" opacity="1.000000" stroke="none" 
	d="
M1701.001099,581.000000 
	C1701.000854,612.650024 1701.143311,643.801331 1700.866211,674.948853 
	C1700.817627,680.412109 1699.539185,686.026978 1697.884033,691.273682 
	C1695.646118,698.367188 1689.875122,702.311401 1682.748901,702.831360 
	C1673.813843,703.483154 1664.795044,702.988159 1655.409180,702.988159 
	C1655.409180,633.050720 1655.409180,563.372131 1655.409180,492.590759 
	C1665.432129,493.059998 1675.527222,492.881927 1685.426270,494.188477 
	C1694.408203,495.373962 1698.361694,502.494476 1699.897705,510.749084 
	C1700.706421,515.094055 1700.928589,519.596436 1700.954346,524.030396 
	C1701.064087,542.853088 1701.001099,561.676697 1701.001099,581.000000 
z"/>
<path fill="#4C6971" opacity="1.000000" stroke="none" 
	d="
M1329.091553,189.729126 
	C1330.426758,198.785538 1331.728760,207.394913 1332.989990,216.010254 
	C1334.918335,229.182037 1336.861206,242.351944 1338.717529,255.533981 
	C1340.249634,266.413879 1341.665161,277.310181 1343.190430,288.630737 
	C1329.584351,288.630737 1316.542603,288.630737 1302.815186,288.630737 
	C1309.327881,241.622040 1315.793579,194.951996 1322.259277,148.281967 
	C1322.655884,148.235779 1323.052612,148.189590 1323.449219,148.143402 
	C1325.312988,161.857193 1327.176636,175.570969 1329.091553,189.729126 
z"/>
<path fill="#4C6971" opacity="1.000000" stroke="none" 
	d="
M1303.986206,556.229980 
	C1303.598999,553.747559 1303.220581,551.712891 1302.769287,549.286804 
	C1316.333008,549.286804 1329.264160,549.286804 1343.245361,549.286804 
	C1336.608521,596.287170 1329.993286,643.135437 1323.377930,689.983765 
	C1322.994019,689.958740 1322.609985,689.933777 1322.226074,689.908813 
	C1320.146851,674.396606 1318.153320,658.872375 1315.964233,643.375732 
	C1313.787842,627.969055 1311.335815,612.601440 1309.154541,597.195374 
	C1307.637329,586.479065 1306.369629,575.727295 1304.999756,564.990234 
	C1304.646484,562.221741 1304.328857,559.448669 1303.986206,556.229980 
z"/>
</svg>